G04*
G04 #@! TF.GenerationSoftware,Altium Limited,Altium Designer,26.3.0 (6)*
G04*
G04 Layer_Physical_Order=3*
G04 Layer_Color=128*
%FSLAX44Y44*%
%MOMM*%
G71*
G04*
G04 #@! TF.SameCoordinates,C553D12A-F046-4733-A82E-BA61C6A6A17C*
G04*
G04*
G04 #@! TF.FilePolarity,Negative*
G04*
G01*
G75*
%ADD48C,1.0160*%
%ADD49C,1.4278*%
%ADD51C,0.3278*%
%ADD53C,0.3778*%
%ADD54C,0.1000*%
%ADD55C,0.1500*%
%ADD56O,2.7778X0.9278*%
D48*
X0Y0D02*
Y146000D01*
X131000D01*
Y0D02*
Y146000D01*
X0Y0D02*
X131000D01*
D49*
X109000Y51000D02*
D03*
Y96000D02*
D03*
D51*
X52000Y107000D02*
D03*
X11977Y67977D02*
D03*
X33458Y117493D02*
D03*
X26000Y121359D02*
D03*
X26000Y116569D02*
D03*
X96654Y83710D02*
D03*
X42000Y87992D02*
D03*
X47004Y72981D02*
D03*
X21985Y67977D02*
D03*
X31992Y82989D02*
D03*
X26989D02*
D03*
X21985D02*
D03*
X67000Y136000D02*
D03*
X63000Y29000D02*
D03*
X47000Y78000D02*
D03*
Y68000D02*
D03*
X22000Y24000D02*
D03*
D53*
X43000Y130000D02*
D03*
D54*
X5000Y119000D02*
X11000D01*
X21000Y129000D01*
X29000D01*
X5000Y111000D02*
Y119000D01*
X62000Y128000D02*
Y141000D01*
X50000Y128000D02*
X62000D01*
X46000Y124000D02*
X50000Y128000D01*
X34000Y124000D02*
X46000D01*
X29000Y129000D02*
X34000Y124000D01*
D55*
X67000Y114000D02*
X71000Y118000D01*
Y124000D01*
X73000Y126000D01*
Y131000D01*
X87000D01*
X93000Y103000D02*
X96000D01*
X98000Y105000D01*
X106000D01*
X67000Y103000D02*
Y114000D01*
Y103000D02*
X93000D01*
X106000Y105000D02*
X109000Y108000D01*
Y117000D01*
X104000Y122000D02*
X109000Y117000D01*
X96000Y122000D02*
X104000D01*
X87000Y131000D02*
X96000Y122000D01*
D56*
X109000Y15000D02*
D03*
Y132000D02*
D03*
M02*
