G04*
G04 #@! TF.GenerationSoftware,Altium Limited,Altium Designer,26.3.0 (6)*
G04*
G04 Layer_Color=128*
%FSLAX44Y44*%
%MOMM*%
G71*
G04*
G04 #@! TF.SameCoordinates,C553D12A-F046-4733-A82E-BA61C6A6A17C*
G04*
G04*
G04 #@! TF.FilePolarity,Positive*
G04*
G01*
G75*
%ADD20R,0.4000X0.4000*%
%ADD21R,0.4000X0.4000*%
%ADD57R,1.4000X1.2000*%
%ADD58C,0.2794*%
%ADD59R,1.0000X1.0000*%
D20*
X76000Y109000D02*
D03*
X82000D02*
D03*
D21*
X74000Y20000D02*
D03*
Y26000D02*
D03*
X55000Y40000D02*
D03*
Y46000D02*
D03*
X81000Y20000D02*
D03*
Y26000D02*
D03*
X65000Y56000D02*
D03*
Y50000D02*
D03*
X44000Y47000D02*
D03*
Y41000D02*
D03*
X46000Y117000D02*
D03*
Y111000D02*
D03*
X39000D02*
D03*
Y117000D02*
D03*
X19000Y41000D02*
D03*
Y47000D02*
D03*
X35000Y41000D02*
D03*
Y47000D02*
D03*
X27000Y47000D02*
D03*
Y41000D02*
D03*
X69000Y103000D02*
D03*
Y97000D02*
D03*
X72000Y56000D02*
D03*
Y50000D02*
D03*
D57*
X93000Y68000D02*
D03*
X71000D02*
D03*
Y85000D02*
D03*
X93000D02*
D03*
D58*
X11977Y62973D02*
D03*
X16981D02*
D03*
X21985D02*
D03*
X26989D02*
D03*
X31992D02*
D03*
X36996D02*
D03*
X42000D02*
D03*
X47004D02*
D03*
X11977Y67977D02*
D03*
X16981D02*
D03*
X21985D02*
D03*
X26989D02*
D03*
X31992D02*
D03*
X36996D02*
D03*
X42000D02*
D03*
X47004D02*
D03*
X11977Y72981D02*
D03*
X16981D02*
D03*
X21985D02*
D03*
X26989D02*
D03*
X31992D02*
D03*
X36996D02*
D03*
X42000D02*
D03*
X47004D02*
D03*
X11977Y77985D02*
D03*
X16981D02*
D03*
X21985D02*
D03*
X26989D02*
D03*
X31992D02*
D03*
X36996D02*
D03*
X42000D02*
D03*
X47004D02*
D03*
X11977Y82989D02*
D03*
X16981D02*
D03*
X21985D02*
D03*
X26989D02*
D03*
X31992D02*
D03*
X36996D02*
D03*
X42000D02*
D03*
X47004D02*
D03*
X11977Y87992D02*
D03*
X16981D02*
D03*
X21985D02*
D03*
X26989D02*
D03*
X31992D02*
D03*
X36996D02*
D03*
X42000D02*
D03*
X47004D02*
D03*
X11977Y92996D02*
D03*
X16981D02*
D03*
X21985D02*
D03*
X26989D02*
D03*
X31992D02*
D03*
X36996D02*
D03*
X42000D02*
D03*
X47004D02*
D03*
X11977Y98000D02*
D03*
X16981D02*
D03*
X21985D02*
D03*
X26989D02*
D03*
X31992D02*
D03*
X36996D02*
D03*
X42000D02*
D03*
X47004D02*
D03*
D59*
X14000Y120000D02*
D03*
Y134000D02*
D03*
X28000Y120000D02*
D03*
Y134000D02*
D03*
M02*
