G04*
G04 #@! TF.GenerationSoftware,Altium Limited,Altium Designer,26.3.0 (6)*
G04*
G04 Layer_Physical_Order=6*
G04 Layer_Color=16711680*
%FSLAX44Y44*%
%MOMM*%
G71*
G04*
G04 #@! TF.SameCoordinates,C553D12A-F046-4733-A82E-BA61C6A6A17C*
G04*
G04*
G04 #@! TF.FilePolarity,Positive*
G04*
G01*
G75*
%ADD20R,0.4000X0.4000*%
%ADD21R,0.4000X0.4000*%
%ADD35C,0.4000*%
%ADD40C,0.1520*%
%ADD42C,1.2500*%
%ADD43O,3.2500X1.6250*%
%ADD44C,0.3000*%
%ADD45C,0.8000*%
%ADD46C,0.5000*%
%ADD47C,0.4000*%
%ADD57R,1.4000X1.2000*%
%ADD58C,0.2794*%
%ADD59R,1.0000X1.0000*%
G36*
X125750Y5250D02*
X5250D01*
Y140750D01*
X33994D01*
X33249Y140005D01*
X33201Y139889D01*
X22111D01*
Y128111D01*
X33889D01*
Y132182D01*
X34377Y132279D01*
X35333Y132917D01*
X36876Y134460D01*
X36954D01*
X38255Y134999D01*
X39251Y135995D01*
X39790Y137296D01*
Y138704D01*
X39251Y140005D01*
X38506Y140750D01*
X125750D01*
Y5250D01*
D02*
G37*
%LPC*%
G36*
X19889Y139889D02*
X8111D01*
Y131607D01*
X7890D01*
X7890Y131607D01*
X7354Y131500D01*
X7247Y131479D01*
X6701Y131114D01*
X6701Y131114D01*
X5811Y130224D01*
X5447Y129678D01*
X5319Y129035D01*
X5319Y129035D01*
Y103890D01*
X5319Y103890D01*
X5447Y103247D01*
X5811Y102702D01*
X6701Y101811D01*
X6701Y101811D01*
X7247Y101447D01*
X7354Y101426D01*
X7890Y101319D01*
X7890Y101319D01*
X10296D01*
Y99552D01*
X10039Y99295D01*
X9691Y98455D01*
Y97545D01*
X10039Y96705D01*
X10682Y96062D01*
X10732Y96041D01*
X10114Y95785D01*
X9188Y94860D01*
X8687Y93651D01*
Y92342D01*
X9188Y91133D01*
X9834Y90487D01*
X9211Y89864D01*
X8710Y88654D01*
Y87346D01*
X9211Y86136D01*
X10136Y85211D01*
X10753Y84956D01*
X10682Y84927D01*
X10039Y84284D01*
X9691Y83443D01*
Y82534D01*
X10039Y81694D01*
X10682Y81051D01*
X11523Y80703D01*
X12432D01*
X13272Y81051D01*
X13915Y81694D01*
X13936Y81743D01*
X14192Y81125D01*
X15117Y80199D01*
X15736Y79943D01*
X15686Y79923D01*
X15043Y79280D01*
X14695Y78439D01*
Y77530D01*
X15043Y76690D01*
X15686Y76047D01*
X16526Y75699D01*
X17436D01*
X18276Y76047D01*
X18919Y76690D01*
X18939Y76740D01*
X19196Y76121D01*
X20121Y75196D01*
X20740Y74940D01*
X20690Y74919D01*
X20047Y74276D01*
X19699Y73436D01*
Y72526D01*
X20047Y71686D01*
X20690Y71043D01*
X21530Y70695D01*
X22439D01*
X23280Y71043D01*
X23923Y71686D01*
X24271Y72526D01*
Y73436D01*
X23923Y74276D01*
X23280Y74919D01*
X23230Y74940D01*
X23848Y75196D01*
X24487Y75834D01*
X25125Y75196D01*
X25743Y74940D01*
X25694Y74919D01*
X25051Y74276D01*
X24703Y73436D01*
Y72526D01*
X25051Y71686D01*
X25694Y71043D01*
X26534Y70695D01*
X27443D01*
X28284Y71043D01*
X28927Y71686D01*
X28947Y71736D01*
X29203Y71117D01*
X30129Y70192D01*
X30747Y69936D01*
X30698Y69915D01*
X30054Y69272D01*
X29706Y68432D01*
Y67523D01*
X30054Y66682D01*
X30698Y66039D01*
X31538Y65691D01*
X32447D01*
X33287Y66039D01*
X33930Y66682D01*
X34278Y67523D01*
Y68432D01*
X33930Y69272D01*
X33287Y69915D01*
X33238Y69936D01*
X33856Y70192D01*
X34781Y71117D01*
X35038Y71736D01*
X35058Y71686D01*
X35701Y71043D01*
X36542Y70695D01*
X37451D01*
X38291Y71043D01*
X38934Y71686D01*
X39282Y72526D01*
Y73436D01*
X38934Y74276D01*
X38291Y74919D01*
X37451Y75267D01*
X36542D01*
X35701Y74919D01*
X35058Y74276D01*
X35038Y74226D01*
X34781Y74845D01*
X34143Y75483D01*
X34781Y76121D01*
X35038Y76740D01*
X35058Y76690D01*
X35701Y76047D01*
X36542Y75699D01*
X37451D01*
X38291Y76047D01*
X38934Y76690D01*
X39282Y77530D01*
Y78439D01*
X38934Y79280D01*
X38291Y79923D01*
X37451Y80271D01*
X36542D01*
X35701Y79923D01*
X35058Y79280D01*
X35038Y79230D01*
X34781Y79848D01*
X33856Y80774D01*
X32647Y81275D01*
X31338D01*
X30129Y80774D01*
X29490Y80136D01*
X28852Y80774D01*
X27643Y81275D01*
X26334D01*
X25125Y80774D01*
X24487Y80136D01*
X23848Y80774D01*
X22639Y81275D01*
X21330D01*
X20121Y80774D01*
X19196Y79848D01*
X18939Y79230D01*
X18919Y79280D01*
X18276Y79923D01*
X18226Y79943D01*
X18845Y80199D01*
X19770Y81125D01*
X20271Y82334D01*
Y83643D01*
X19770Y84852D01*
X19132Y85491D01*
X19770Y86129D01*
X20026Y86747D01*
X20047Y86698D01*
X20690Y86054D01*
X21530Y85706D01*
X22439D01*
X23280Y86054D01*
X23923Y86698D01*
X24271Y87538D01*
Y88447D01*
X23923Y89287D01*
X23280Y89930D01*
X22439Y90278D01*
X21530D01*
X20690Y89930D01*
X20047Y89287D01*
X20026Y89238D01*
X19770Y89856D01*
X18845Y90781D01*
X18226Y91038D01*
X18276Y91058D01*
X18919Y91701D01*
X19267Y92542D01*
Y93451D01*
X18919Y94291D01*
X18276Y94934D01*
X17436Y95282D01*
X16526D01*
X15686Y94934D01*
X15043Y94291D01*
X15022Y94242D01*
X14766Y94860D01*
X13841Y95785D01*
X13223Y96041D01*
X13272Y96062D01*
X13915Y96705D01*
X14263Y97545D01*
Y98455D01*
X13915Y99295D01*
X13658Y99552D01*
Y102109D01*
X13658Y102110D01*
X13552Y102646D01*
X13530Y102753D01*
X13166Y103298D01*
X13166Y103299D01*
X12276Y104189D01*
X11730Y104553D01*
X11087Y104681D01*
X11087Y104681D01*
X8681D01*
Y114111D01*
X12319D01*
Y107000D01*
X12319Y107000D01*
X12447Y106357D01*
X12811Y105811D01*
X15319Y103304D01*
Y99571D01*
X15043Y99295D01*
X14695Y98455D01*
Y97545D01*
X15043Y96705D01*
X15686Y96062D01*
X16526Y95714D01*
X17436D01*
X18276Y96062D01*
X18919Y96705D01*
X19267Y97545D01*
Y98455D01*
X18919Y99295D01*
X18681Y99533D01*
Y104000D01*
X18681Y104000D01*
X18553Y104643D01*
X18189Y105189D01*
X18189Y105189D01*
X15681Y107696D01*
Y114111D01*
X19889D01*
Y125889D01*
X8681D01*
Y128111D01*
X19889D01*
Y139889D01*
D02*
G37*
G36*
X47018Y125654D02*
X45709D01*
X44500Y125153D01*
X43575Y124227D01*
X43074Y123018D01*
Y121709D01*
X43575Y120500D01*
X44186Y119889D01*
X43111D01*
Y114111D01*
X48889D01*
Y119889D01*
X48542D01*
X49153Y120500D01*
X49654Y121709D01*
Y123018D01*
X49153Y124227D01*
X48227Y125153D01*
X47018Y125654D01*
D02*
G37*
G36*
X78889Y111889D02*
X73111D01*
Y110681D01*
X65000D01*
X65000Y110681D01*
X64463Y110575D01*
X64357Y110553D01*
X63811Y110189D01*
X63811Y110189D01*
X62811Y109189D01*
X62447Y108643D01*
X62319Y108000D01*
X62319Y108000D01*
Y104696D01*
X62304Y104681D01*
X43000D01*
X43000Y104681D01*
X42463Y104574D01*
X42357Y104553D01*
X41811Y104189D01*
X41811Y104189D01*
X40811Y103189D01*
X40447Y102643D01*
X40319Y102000D01*
X40319Y102000D01*
Y99552D01*
X40062Y99295D01*
X39714Y98455D01*
Y97545D01*
X40062Y96705D01*
X40696Y96071D01*
X40136Y95839D01*
X39211Y94914D01*
X38944Y94268D01*
X38934Y94291D01*
X38291Y94934D01*
X37451Y95282D01*
X36542D01*
X35701Y94934D01*
X35058Y94291D01*
X35038Y94242D01*
X34781Y94860D01*
X33856Y95785D01*
X33238Y96041D01*
X33287Y96062D01*
X33930Y96705D01*
X34278Y97545D01*
Y98455D01*
X33930Y99295D01*
X33287Y99938D01*
X32447Y100286D01*
X31538D01*
X30698Y99938D01*
X30054Y99295D01*
X29706Y98455D01*
Y97545D01*
X30054Y96705D01*
X30698Y96062D01*
X30747Y96041D01*
X30129Y95785D01*
X29203Y94860D01*
X28947Y94242D01*
X28927Y94291D01*
X28284Y94934D01*
X27443Y95282D01*
X26534D01*
X25694Y94934D01*
X25051Y94291D01*
X24703Y93451D01*
Y92542D01*
X25051Y91701D01*
X25694Y91058D01*
X26534Y90710D01*
X27443D01*
X28284Y91058D01*
X28927Y91701D01*
X28947Y91751D01*
X29203Y91133D01*
X30129Y90207D01*
X30747Y89951D01*
X30698Y89930D01*
X30054Y89287D01*
X29706Y88447D01*
Y87538D01*
X30054Y86698D01*
X30698Y86054D01*
X31538Y85706D01*
X32447D01*
X33287Y86054D01*
X33930Y86698D01*
X34278Y87538D01*
Y88447D01*
X33930Y89287D01*
X33287Y89930D01*
X33238Y89951D01*
X33856Y90207D01*
X34781Y91133D01*
X35038Y91751D01*
X35058Y91701D01*
X35701Y91058D01*
X36542Y90710D01*
X37451D01*
X38291Y91058D01*
X38934Y91701D01*
X38966Y91778D01*
X39211Y91186D01*
X40136Y90261D01*
X41346Y89760D01*
X42654D01*
X43864Y90261D01*
X44789Y91186D01*
X45034Y91778D01*
X45066Y91701D01*
X45709Y91058D01*
X46549Y90710D01*
X47459D01*
X48299Y91058D01*
X48942Y91701D01*
X49290Y92542D01*
Y93451D01*
X48942Y94291D01*
X48299Y94934D01*
X47459Y95282D01*
X46549D01*
X45709Y94934D01*
X45066Y94291D01*
X45056Y94268D01*
X44789Y94914D01*
X43864Y95839D01*
X43304Y96071D01*
X43938Y96705D01*
X44286Y97545D01*
Y98455D01*
X43938Y99295D01*
X43681Y99552D01*
Y101304D01*
X43696Y101319D01*
X63000D01*
X63000Y101319D01*
X63643Y101447D01*
X64189Y101811D01*
X65189Y102811D01*
X65189Y102811D01*
X65553Y103357D01*
X65574Y103463D01*
X65681Y104000D01*
X65681Y104000D01*
Y107304D01*
X65696Y107319D01*
X73111D01*
Y106111D01*
X78889D01*
Y111889D01*
D02*
G37*
G36*
X101048Y120270D02*
X98952D01*
X97015Y119468D01*
X95532Y117985D01*
X94730Y116048D01*
Y113952D01*
X95532Y112015D01*
X97015Y110532D01*
X98952Y109730D01*
X101048D01*
X102985Y110532D01*
X104468Y112015D01*
X105270Y113952D01*
Y116048D01*
X104468Y117985D01*
X102985Y119468D01*
X101048Y120270D01*
D02*
G37*
G36*
X33654Y114290D02*
X32346D01*
X31136Y113789D01*
X30211Y112864D01*
X29710Y111654D01*
Y110346D01*
X30211Y109136D01*
X31136Y108211D01*
X32346Y107710D01*
X33654D01*
X34864Y108211D01*
X35789Y109136D01*
X35865Y109319D01*
X36111D01*
Y108111D01*
X41889D01*
Y113889D01*
X36111D01*
Y112681D01*
X35865D01*
X35789Y112864D01*
X34864Y113789D01*
X33654Y114290D01*
D02*
G37*
G36*
X71889Y99889D02*
X66111D01*
Y98681D01*
X62000D01*
X62000Y98681D01*
X61463Y98575D01*
X61357Y98553D01*
X60811Y98189D01*
X60811Y98189D01*
X52296Y89674D01*
X48555D01*
X48299Y89930D01*
X47459Y90278D01*
X46549D01*
X45709Y89930D01*
X45066Y89287D01*
X44718Y88447D01*
Y87538D01*
X45066Y86698D01*
X45709Y86054D01*
X46549Y85706D01*
X47459D01*
X48299Y86054D01*
X48555Y86311D01*
X52992D01*
X52992Y86311D01*
X53636Y86439D01*
X54181Y86804D01*
X62696Y95319D01*
X66111D01*
Y94111D01*
X67319D01*
Y91889D01*
X63111D01*
Y78111D01*
X78889D01*
Y91889D01*
X70681D01*
Y94111D01*
X71889D01*
Y99889D01*
D02*
G37*
G36*
X47459Y100286D02*
X46549D01*
X45709Y99938D01*
X45066Y99295D01*
X44718Y98455D01*
Y97545D01*
X45066Y96705D01*
X45709Y96062D01*
X46549Y95714D01*
X47459D01*
X48299Y96062D01*
X48942Y96705D01*
X49290Y97545D01*
Y98455D01*
X48942Y99295D01*
X48299Y99938D01*
X47459Y100286D01*
D02*
G37*
G36*
X37451D02*
X36542D01*
X35701Y99938D01*
X35058Y99295D01*
X34710Y98455D01*
Y97545D01*
X35058Y96705D01*
X35701Y96062D01*
X36542Y95714D01*
X37451D01*
X38291Y96062D01*
X38934Y96705D01*
X39282Y97545D01*
Y98455D01*
X38934Y99295D01*
X38291Y99938D01*
X37451Y100286D01*
D02*
G37*
G36*
X27443D02*
X26534D01*
X25694Y99938D01*
X25051Y99295D01*
X24703Y98455D01*
Y97545D01*
X25051Y96705D01*
X25694Y96062D01*
X26534Y95714D01*
X27443D01*
X28284Y96062D01*
X28927Y96705D01*
X29275Y97545D01*
Y98455D01*
X28927Y99295D01*
X28284Y99938D01*
X27443Y100286D01*
D02*
G37*
G36*
X22439D02*
X21530D01*
X20690Y99938D01*
X20047Y99295D01*
X19699Y98455D01*
Y97545D01*
X20047Y96705D01*
X20690Y96062D01*
X21530Y95714D01*
X22439D01*
X23280Y96062D01*
X23923Y96705D01*
X24271Y97545D01*
Y98455D01*
X23923Y99295D01*
X23280Y99938D01*
X22439Y100286D01*
D02*
G37*
G36*
Y95282D02*
X21530D01*
X20690Y94934D01*
X20047Y94291D01*
X19699Y93451D01*
Y92542D01*
X20047Y91701D01*
X20690Y91058D01*
X21530Y90710D01*
X22439D01*
X23280Y91058D01*
X23923Y91701D01*
X24271Y92542D01*
Y93451D01*
X23923Y94291D01*
X23280Y94934D01*
X22439Y95282D01*
D02*
G37*
G36*
X110157Y104790D02*
X107843D01*
X105607Y104191D01*
X103603Y103034D01*
X101966Y101397D01*
X100809Y99393D01*
X100210Y97157D01*
Y94843D01*
X100809Y92607D01*
X101966Y90603D01*
X103603Y88966D01*
X105607Y87809D01*
X107843Y87210D01*
X110157D01*
X112393Y87809D01*
X114397Y88966D01*
X116034Y90603D01*
X117191Y92607D01*
X117790Y94843D01*
Y97157D01*
X117191Y99393D01*
X116034Y101397D01*
X114397Y103034D01*
X112393Y104191D01*
X110157Y104790D01*
D02*
G37*
G36*
X37451Y90278D02*
X36542D01*
X35701Y89930D01*
X35058Y89287D01*
X34710Y88447D01*
Y87538D01*
X35058Y86698D01*
X35701Y86054D01*
X36542Y85706D01*
X37451D01*
X38291Y86054D01*
X38934Y86698D01*
X39282Y87538D01*
Y88447D01*
X38934Y89287D01*
X38291Y89930D01*
X37451Y90278D01*
D02*
G37*
G36*
X27443D02*
X26534D01*
X25694Y89930D01*
X25051Y89287D01*
X24703Y88447D01*
Y87538D01*
X25051Y86698D01*
X25694Y86054D01*
X26534Y85706D01*
X27443D01*
X28284Y86054D01*
X28927Y86698D01*
X29275Y87538D01*
Y88447D01*
X28927Y89287D01*
X28284Y89930D01*
X27443Y90278D01*
D02*
G37*
G36*
X42654Y86279D02*
X41346D01*
X40136Y85778D01*
X39211Y84852D01*
X38955Y84234D01*
X38934Y84284D01*
X38291Y84927D01*
X37451Y85275D01*
X36542D01*
X35701Y84927D01*
X35058Y84284D01*
X34710Y83443D01*
Y82534D01*
X35058Y81694D01*
X35701Y81051D01*
X36542Y80703D01*
X37451D01*
X38291Y81051D01*
X38934Y81694D01*
X38955Y81743D01*
X39211Y81125D01*
X40136Y80199D01*
X40755Y79943D01*
X40705Y79923D01*
X40062Y79280D01*
X39714Y78439D01*
Y77530D01*
X40062Y76690D01*
X40705Y76047D01*
X41545Y75699D01*
X42455D01*
X43295Y76047D01*
X43938Y76690D01*
X43960Y76743D01*
X44211Y76136D01*
X45136Y75211D01*
X46346Y74710D01*
X47654D01*
X48864Y75211D01*
X49789Y76136D01*
X50290Y77346D01*
Y78654D01*
X49789Y79864D01*
X48864Y80789D01*
X48266Y81037D01*
X48299Y81051D01*
X48555Y81307D01*
X52315D01*
X58319Y75304D01*
Y57000D01*
X58319Y57000D01*
X58447Y56357D01*
X58811Y55811D01*
X59811Y54811D01*
X59811Y54811D01*
X60357Y54447D01*
X60463Y54425D01*
X61000Y54319D01*
X61000Y54319D01*
X62111D01*
Y53111D01*
X67889D01*
Y58889D01*
X62111D01*
Y57681D01*
X61696D01*
X61681Y57696D01*
Y76000D01*
X61681Y76000D01*
X61575Y76537D01*
X61553Y76643D01*
X61189Y77189D01*
X61189Y77189D01*
X54200Y84178D01*
X53655Y84542D01*
X53011Y84670D01*
X53011Y84670D01*
X48555D01*
X48299Y84927D01*
X47459Y85275D01*
X46549D01*
X45709Y84927D01*
X45066Y84284D01*
X45045Y84234D01*
X44789Y84852D01*
X43864Y85778D01*
X42654Y86279D01*
D02*
G37*
G36*
X12432Y80271D02*
X11523D01*
X10682Y79923D01*
X10039Y79280D01*
X9691Y78439D01*
Y77530D01*
X10039Y76690D01*
X10682Y76047D01*
X10732Y76026D01*
X10114Y75770D01*
X9188Y74845D01*
X8687Y73635D01*
Y72327D01*
X9188Y71117D01*
X9826Y70479D01*
X9188Y69841D01*
X8687Y68632D01*
Y67323D01*
X9188Y66114D01*
X9813Y65489D01*
X9188Y64864D01*
X8687Y63654D01*
Y62346D01*
X9188Y61136D01*
X10114Y60211D01*
X11323Y59710D01*
X12632D01*
X13841Y60211D01*
X14766Y61136D01*
X15017Y61741D01*
X15043Y61679D01*
X15686Y61035D01*
X16526Y60687D01*
X17436D01*
X18276Y61035D01*
X18919Y61679D01*
X19267Y62519D01*
Y63428D01*
X18919Y64268D01*
X18276Y64911D01*
X17436Y65259D01*
X16526D01*
X15686Y64911D01*
X15043Y64268D01*
X15028Y64232D01*
X14766Y64864D01*
X14141Y65489D01*
X14766Y66114D01*
X15022Y66732D01*
X15043Y66682D01*
X15686Y66039D01*
X16526Y65691D01*
X17436D01*
X18276Y66039D01*
X18919Y66682D01*
X19267Y67523D01*
Y68432D01*
X18919Y69272D01*
X18276Y69915D01*
X17436Y70263D01*
X16526D01*
X15686Y69915D01*
X15043Y69272D01*
X15022Y69222D01*
X14766Y69841D01*
X14128Y70479D01*
X14766Y71117D01*
X15022Y71736D01*
X15043Y71686D01*
X15686Y71043D01*
X16526Y70695D01*
X17436D01*
X18276Y71043D01*
X18919Y71686D01*
X19267Y72526D01*
Y73436D01*
X18919Y74276D01*
X18276Y74919D01*
X17436Y75267D01*
X16526D01*
X15686Y74919D01*
X15043Y74276D01*
X15022Y74226D01*
X14766Y74845D01*
X13841Y75770D01*
X13223Y76026D01*
X13272Y76047D01*
X13915Y76690D01*
X14263Y77530D01*
Y78439D01*
X13915Y79280D01*
X13272Y79923D01*
X12432Y80271D01*
D02*
G37*
G36*
X42455Y75267D02*
X41545D01*
X40705Y74919D01*
X40062Y74276D01*
X39714Y73436D01*
Y72526D01*
X40062Y71686D01*
X40705Y71043D01*
X40755Y71023D01*
X40136Y70766D01*
X39211Y69841D01*
X38955Y69222D01*
X38934Y69272D01*
X38291Y69915D01*
X37451Y70263D01*
X36542D01*
X35701Y69915D01*
X35058Y69272D01*
X34710Y68432D01*
Y67523D01*
X35058Y66682D01*
X35701Y66039D01*
X36542Y65691D01*
X37451D01*
X38291Y66039D01*
X38934Y66682D01*
X38955Y66732D01*
X39211Y66114D01*
X40136Y65188D01*
X40755Y64932D01*
X40705Y64911D01*
X40062Y64268D01*
X39714Y63428D01*
Y62519D01*
X40062Y61679D01*
X40705Y61035D01*
X41545Y60687D01*
X42455D01*
X43295Y61035D01*
X43938Y61679D01*
X43959Y61728D01*
X44215Y61110D01*
X45140Y60184D01*
X46349Y59683D01*
X47658D01*
X48867Y60184D01*
X49793Y61110D01*
X50294Y62319D01*
Y63628D01*
X49793Y64837D01*
X49141Y65489D01*
X49789Y66136D01*
X50290Y67346D01*
Y68654D01*
X49789Y69864D01*
X48864Y70789D01*
X47654Y71290D01*
X46346D01*
X45136Y70789D01*
X44489Y70141D01*
X43864Y70766D01*
X43245Y71023D01*
X43295Y71043D01*
X43938Y71686D01*
X44286Y72526D01*
Y73436D01*
X43938Y74276D01*
X43295Y74919D01*
X42455Y75267D01*
D02*
G37*
G36*
X27443Y70263D02*
X26534D01*
X25694Y69915D01*
X25051Y69272D01*
X24703Y68432D01*
Y67523D01*
X25051Y66682D01*
X25694Y66039D01*
X26534Y65691D01*
X27443D01*
X28284Y66039D01*
X28927Y66682D01*
X29275Y67523D01*
Y68432D01*
X28927Y69272D01*
X28284Y69915D01*
X27443Y70263D01*
D02*
G37*
G36*
X37451Y65259D02*
X36542D01*
X35701Y64911D01*
X35058Y64268D01*
X34710Y63428D01*
Y62519D01*
X35058Y61679D01*
X35701Y61035D01*
X36542Y60687D01*
X37451D01*
X38291Y61035D01*
X38934Y61679D01*
X39282Y62519D01*
Y63428D01*
X38934Y64268D01*
X38291Y64911D01*
X37451Y65259D01*
D02*
G37*
G36*
X32447D02*
X31538D01*
X30698Y64911D01*
X30054Y64268D01*
X29706Y63428D01*
Y62519D01*
X30054Y61679D01*
X30698Y61035D01*
X31538Y60687D01*
X32447D01*
X33287Y61035D01*
X33930Y61679D01*
X34278Y62519D01*
Y63428D01*
X33930Y64268D01*
X33287Y64911D01*
X32447Y65259D01*
D02*
G37*
G36*
X27443D02*
X26534D01*
X25694Y64911D01*
X25051Y64268D01*
X24703Y63428D01*
Y62519D01*
X25051Y61679D01*
X25694Y61035D01*
X26534Y60687D01*
X27443D01*
X28284Y61035D01*
X28927Y61679D01*
X29275Y62519D01*
Y63428D01*
X28927Y64268D01*
X28284Y64911D01*
X27443Y65259D01*
D02*
G37*
G36*
X22439D02*
X21530D01*
X20690Y64911D01*
X20047Y64268D01*
X19699Y63428D01*
Y62519D01*
X20047Y61679D01*
X20690Y61035D01*
X21530Y60687D01*
X22439D01*
X23280Y61035D01*
X23923Y61679D01*
X24271Y62519D01*
Y63428D01*
X23923Y64268D01*
X23280Y64911D01*
X22439Y65259D01*
D02*
G37*
G36*
X100889Y74889D02*
X85111D01*
Y61111D01*
X91319D01*
Y51681D01*
X74889D01*
Y52889D01*
X69111D01*
Y51681D01*
X67889D01*
Y52889D01*
X62111D01*
Y47111D01*
X67889D01*
Y48319D01*
X69111D01*
Y47111D01*
X74889D01*
Y48319D01*
X92109D01*
X92110Y48319D01*
X92753Y48447D01*
X93298Y48811D01*
X94189Y49701D01*
X94189Y49702D01*
X94553Y50247D01*
X94574Y50354D01*
X94681Y50890D01*
X94681Y50891D01*
Y61111D01*
X100889D01*
Y74889D01*
D02*
G37*
G36*
X44654Y55580D02*
X43346D01*
X42136Y55079D01*
X41211Y54154D01*
X40710Y52944D01*
Y51636D01*
X41211Y50426D01*
X41748Y49889D01*
X41111D01*
Y44111D01*
X46889D01*
Y49889D01*
X46252D01*
X46789Y50426D01*
X47290Y51636D01*
Y52944D01*
X46789Y54154D01*
X45864Y55079D01*
X44654Y55580D01*
D02*
G37*
G36*
X26425Y55790D02*
X25116D01*
X23907Y55289D01*
X22981Y54364D01*
X22480Y53154D01*
Y51846D01*
X22981Y50636D01*
X23907Y49711D01*
X24111Y49626D01*
Y44111D01*
X29889D01*
Y49889D01*
X28681D01*
Y50926D01*
X28681Y50926D01*
X28681Y50929D01*
X29060Y51846D01*
Y53154D01*
X28560Y54364D01*
X27634Y55289D01*
X26425Y55790D01*
D02*
G37*
G36*
X55651Y58305D02*
X54342D01*
X53133Y57804D01*
X52207Y56879D01*
X51706Y55670D01*
Y54361D01*
X52207Y53152D01*
X53133Y52226D01*
X53319Y52149D01*
Y48889D01*
X52111D01*
Y43111D01*
X57889D01*
Y48889D01*
X56681D01*
Y52152D01*
X56860Y52226D01*
X57785Y53152D01*
X58286Y54361D01*
Y55670D01*
X57785Y56879D01*
X56860Y57804D01*
X55651Y58305D01*
D02*
G37*
G36*
X110157Y59790D02*
X107843D01*
X105607Y59191D01*
X103603Y58034D01*
X101966Y56397D01*
X100809Y54393D01*
X100210Y52157D01*
Y49843D01*
X100809Y47607D01*
X101966Y45603D01*
X103603Y43966D01*
X105607Y42809D01*
X107843Y42210D01*
X110157D01*
X112393Y42809D01*
X114397Y43966D01*
X116034Y45603D01*
X117191Y47607D01*
X117790Y49843D01*
Y52157D01*
X117191Y54393D01*
X116034Y56397D01*
X114397Y58034D01*
X112393Y59191D01*
X110157Y59790D01*
D02*
G37*
G36*
X37889Y43889D02*
X32111D01*
Y38111D01*
X32458D01*
X32211Y37864D01*
X31710Y36655D01*
Y35346D01*
X32211Y34136D01*
X33136Y33211D01*
X34346Y32710D01*
X35654D01*
X36864Y33211D01*
X37789Y34136D01*
X38290Y35346D01*
Y36655D01*
X37789Y37864D01*
X37542Y38111D01*
X37889D01*
Y43889D01*
D02*
G37*
G36*
X21889D02*
X16111D01*
Y38111D01*
X17319D01*
Y37174D01*
X17319Y37174D01*
X17447Y36530D01*
X17811Y35985D01*
X18701Y35094D01*
X18701Y35094D01*
X18787Y35037D01*
X19258Y34566D01*
X19259Y34566D01*
X19804Y34202D01*
X20447Y34073D01*
X20447Y34074D01*
X21594D01*
X21670Y33891D01*
X22595Y32966D01*
X23805Y32465D01*
X25113D01*
X26323Y32966D01*
X27248Y33891D01*
X27749Y35100D01*
Y36409D01*
X27248Y37618D01*
X26323Y38544D01*
X25113Y39045D01*
X23805D01*
X22595Y38544D01*
X21670Y37618D01*
X21594Y37436D01*
X21144D01*
X21108Y37472D01*
X21022Y37529D01*
X20681Y37870D01*
Y38111D01*
X21889D01*
Y43889D01*
D02*
G37*
G36*
X57889Y42889D02*
X52111D01*
Y37111D01*
X57889D01*
Y38319D01*
X59304D01*
X60036Y37587D01*
Y36444D01*
X60036Y36444D01*
X60163Y35801D01*
X60528Y35255D01*
X61115Y34668D01*
X60954Y34280D01*
Y32971D01*
X61455Y31762D01*
X62380Y30836D01*
X63590Y30336D01*
X64899D01*
X66108Y30836D01*
X67033Y31762D01*
X67534Y32971D01*
Y34280D01*
X67033Y35489D01*
X66108Y36415D01*
X64899Y36916D01*
X63623D01*
X63398Y37140D01*
Y38283D01*
X63398Y38283D01*
X63270Y38927D01*
X62906Y39472D01*
X62906Y39472D01*
X61189Y41189D01*
X60643Y41553D01*
X60000Y41681D01*
X60000Y41681D01*
X57889D01*
Y42889D01*
D02*
G37*
G36*
X83889Y22889D02*
X78111D01*
Y17111D01*
X79319D01*
Y15865D01*
X79136Y15789D01*
X78211Y14864D01*
X77710Y13654D01*
Y12346D01*
X78211Y11136D01*
X79136Y10211D01*
X80346Y9710D01*
X81654D01*
X82864Y10211D01*
X83789Y11136D01*
X84290Y12346D01*
Y13654D01*
X83789Y14864D01*
X82864Y15789D01*
X82681Y15865D01*
Y17111D01*
X83889D01*
Y22889D01*
D02*
G37*
G36*
X76889D02*
X71111D01*
Y17111D01*
X72319D01*
Y15865D01*
X72136Y15789D01*
X71211Y14864D01*
X70710Y13654D01*
Y12346D01*
X71211Y11136D01*
X72136Y10211D01*
X73346Y9710D01*
X74654D01*
X75864Y10211D01*
X76789Y11136D01*
X77290Y12346D01*
Y13654D01*
X76789Y14864D01*
X75864Y15789D01*
X75681Y15865D01*
Y17111D01*
X76889D01*
Y22889D01*
D02*
G37*
%LPD*%
D20*
X76000Y109000D02*
D03*
X82000D02*
D03*
D21*
X74000Y20000D02*
D03*
Y26000D02*
D03*
X55000Y40000D02*
D03*
Y46000D02*
D03*
X81000Y20000D02*
D03*
Y26000D02*
D03*
X65000Y56000D02*
D03*
Y50000D02*
D03*
X44000Y47000D02*
D03*
Y41000D02*
D03*
X46000Y117000D02*
D03*
Y111000D02*
D03*
X39000D02*
D03*
Y117000D02*
D03*
X19000Y41000D02*
D03*
Y47000D02*
D03*
X35000Y41000D02*
D03*
Y47000D02*
D03*
X27000Y47000D02*
D03*
Y41000D02*
D03*
X69000Y103000D02*
D03*
Y97000D02*
D03*
X72000Y56000D02*
D03*
Y50000D02*
D03*
D35*
X33250Y135000D02*
X36250Y138000D01*
X29000Y135000D02*
X33250D01*
X28000Y134000D02*
X29000Y135000D01*
D40*
X64244Y33626D02*
Y33917D01*
X61717Y36444D02*
X64244Y33917D01*
X61717Y36444D02*
Y38283D01*
X44000Y47000D02*
Y52290D01*
X25770Y52156D02*
Y52500D01*
Y52156D02*
X27000Y50926D01*
Y47000D02*
Y50926D01*
X35000Y36000D02*
Y41000D01*
X46182Y122182D02*
X46364Y122364D01*
X46182Y117182D02*
Y122182D01*
X46000Y117000D02*
X46182Y117182D01*
X46000Y122000D02*
X46283Y121717D01*
X60000Y40000D02*
X61717Y38283D01*
X55000Y40000D02*
X60000D01*
X35000Y41000D02*
X35500Y40500D01*
X19919Y36283D02*
X20447Y35755D01*
X19890Y36283D02*
X19919D01*
X20447Y35755D02*
X24459D01*
X7000Y129035D02*
X7890Y129925D01*
X9925D01*
X7000Y103890D02*
Y129035D01*
X9925Y129925D02*
X14000Y134000D01*
X33000Y111000D02*
X39000D01*
X19000Y37174D02*
Y41000D01*
Y37174D02*
X19890Y36283D01*
X27000Y47000D02*
X27000Y47000D01*
X7890Y103000D02*
X11087D01*
X7000Y103890D02*
X7890Y103000D01*
X11087D02*
X11977Y102110D01*
Y98000D02*
Y102110D01*
X16981Y98000D02*
X17000Y98019D01*
Y104000D01*
X14000Y107000D02*
X17000Y104000D01*
X14000Y107000D02*
Y120000D01*
X55000Y46000D02*
Y55000D01*
X42000Y98000D02*
Y102000D01*
X43000Y103000D01*
X63000D01*
X64000Y104000D01*
Y108000D01*
X65000Y109000D01*
X76000D01*
X81000Y13000D02*
Y20000D01*
X74000Y13000D02*
Y20000D01*
X60000Y57000D02*
Y76000D01*
Y57000D02*
X61000Y56000D01*
X65000D01*
X53011Y82989D02*
X60000Y76000D01*
X47004Y82989D02*
X53011D01*
X93000Y68000D02*
X93000Y68000D01*
X93000Y50890D02*
Y68000D01*
X92110Y50000D02*
X93000Y50890D01*
X72000Y50000D02*
X92110D01*
X65000D02*
X72000D01*
X69000Y87000D02*
X71000Y85000D01*
X69000Y87000D02*
Y97000D01*
X62000D02*
X69000D01*
X52992Y87992D02*
X62000Y97000D01*
X47004Y87992D02*
X52992D01*
D42*
X109000Y51000D02*
D03*
Y96000D02*
D03*
D43*
Y15000D02*
D03*
Y132000D02*
D03*
D44*
X64244Y33626D02*
D03*
X11977Y63000D02*
D03*
Y72981D02*
D03*
X44000Y52290D02*
D03*
X25770Y52500D02*
D03*
X35000Y36000D02*
D03*
X11977Y67977D02*
D03*
X26000Y121359D02*
D03*
X46364Y122364D02*
D03*
X42000Y87992D02*
D03*
X47004Y72981D02*
D03*
X21985Y67977D02*
D03*
X31992Y82989D02*
D03*
X26989D02*
D03*
X21985D02*
D03*
X67000Y136000D02*
D03*
X63000Y29000D02*
D03*
X12000Y88000D02*
D03*
X24459Y35755D02*
D03*
X47000Y78000D02*
D03*
X42000Y93050D02*
D03*
X31992Y72981D02*
D03*
X33000Y111000D02*
D03*
X42000Y82989D02*
D03*
X47004Y62973D02*
D03*
X31992Y77985D02*
D03*
X26989D02*
D03*
X21985D02*
D03*
X11977Y92996D02*
D03*
X42000Y67977D02*
D03*
X54996Y55015D02*
D03*
X47000Y68000D02*
D03*
X16981Y87992D02*
D03*
X81000Y13000D02*
D03*
X31992Y92996D02*
D03*
X16981Y82989D02*
D03*
X74000Y13000D02*
D03*
D45*
X100000Y115000D02*
D03*
D46*
X43000Y130000D02*
D03*
D47*
X36250Y138000D02*
D03*
D57*
X93000Y68000D02*
D03*
X71000D02*
D03*
Y85000D02*
D03*
X93000D02*
D03*
D58*
X11977Y62973D02*
D03*
X16981D02*
D03*
X21985D02*
D03*
X26989D02*
D03*
X31992D02*
D03*
X36996D02*
D03*
X42000D02*
D03*
X47004D02*
D03*
X11977Y67977D02*
D03*
X16981D02*
D03*
X21985D02*
D03*
X26989D02*
D03*
X31992D02*
D03*
X36996D02*
D03*
X42000D02*
D03*
X47004D02*
D03*
X11977Y72981D02*
D03*
X16981D02*
D03*
X21985D02*
D03*
X26989D02*
D03*
X31992D02*
D03*
X36996D02*
D03*
X42000D02*
D03*
X47004D02*
D03*
X11977Y77985D02*
D03*
X16981D02*
D03*
X21985D02*
D03*
X26989D02*
D03*
X31992D02*
D03*
X36996D02*
D03*
X42000D02*
D03*
X47004D02*
D03*
X11977Y82989D02*
D03*
X16981D02*
D03*
X21985D02*
D03*
X26989D02*
D03*
X31992D02*
D03*
X36996D02*
D03*
X42000D02*
D03*
X47004D02*
D03*
X11977Y87992D02*
D03*
X16981D02*
D03*
X21985D02*
D03*
X26989D02*
D03*
X31992D02*
D03*
X36996D02*
D03*
X42000D02*
D03*
X47004D02*
D03*
X11977Y92996D02*
D03*
X16981D02*
D03*
X21985D02*
D03*
X26989D02*
D03*
X31992D02*
D03*
X36996D02*
D03*
X42000D02*
D03*
X47004D02*
D03*
X11977Y98000D02*
D03*
X16981D02*
D03*
X21985D02*
D03*
X26989D02*
D03*
X31992D02*
D03*
X36996D02*
D03*
X42000D02*
D03*
X47004D02*
D03*
D59*
X14000Y120000D02*
D03*
Y134000D02*
D03*
X28000Y120000D02*
D03*
Y134000D02*
D03*
M02*
