G04*
G04 #@! TF.GenerationSoftware,Altium Limited,Altium Designer,26.3.0 (6)*
G04*
G04 Layer_Color=32896*
%FSLAX44Y44*%
%MOMM*%
G71*
G04*
G04 #@! TF.SameCoordinates,C553D12A-F046-4733-A82E-BA61C6A6A17C*
G04*
G04*
G04 #@! TF.FilePolarity,Positive*
G04*
G01*
G75*
%ADD10C,0.0500*%
D10*
X102100Y60250D02*
G03*
X102100Y60250I-100J0D01*
G01*
X58330Y108737D02*
G03*
X58330Y108737I-90J0D01*
G01*
X96250Y60750D02*
X101250D01*
Y64750D01*
X62750Y92250D02*
X67750D01*
X62750Y88250D02*
Y92250D01*
X62702Y60673D02*
Y65673D01*
Y60673D02*
X66702D01*
X101250Y87250D02*
Y92250D01*
X97250D02*
X101250D01*
X56542Y53436D02*
Y107538D01*
X2439D02*
X56542D01*
X2439Y53436D02*
Y107538D01*
Y53436D02*
X56542D01*
X72750Y112250D02*
X85250D01*
X72750Y105750D02*
Y112250D01*
Y105750D02*
X85250D01*
Y112250D01*
X70750Y16750D02*
Y29250D01*
Y16750D02*
X77250D01*
Y29250D01*
X70750D02*
X77250D01*
X51750Y36750D02*
Y49250D01*
Y36750D02*
X58250D01*
Y49250D01*
X51750D02*
X58250D01*
X77750Y16750D02*
Y29250D01*
Y16750D02*
X84250D01*
Y29250D01*
X77750D02*
X84250D01*
X68250Y46750D02*
Y59250D01*
X61750D02*
X68250D01*
X61750Y46750D02*
Y59250D01*
Y46750D02*
X68250D01*
X40750Y50250D02*
X47250D01*
Y37750D02*
Y50250D01*
X40750Y37750D02*
X47250D01*
X40750D02*
Y50250D01*
X42750Y120250D02*
X49250D01*
Y107750D02*
Y120250D01*
X42750Y107750D02*
X49250D01*
X42750D02*
Y120250D01*
X35750Y107750D02*
X42250D01*
X35750D02*
Y120250D01*
X42250D01*
Y107750D02*
Y120250D01*
X15750Y37750D02*
X22250D01*
X15750D02*
Y50250D01*
X22250D01*
Y37750D02*
Y50250D01*
X31750Y37750D02*
X38250D01*
X31750D02*
Y50250D01*
X38250D01*
Y37750D02*
Y50250D01*
X23750Y50250D02*
X30250D01*
Y37750D02*
Y50250D01*
X23750Y37750D02*
X30250D01*
X23750D02*
Y50250D01*
X65750Y106250D02*
X72250D01*
Y93750D02*
Y106250D01*
X65750Y93750D02*
X72250D01*
X65750D02*
Y106250D01*
X68750Y59250D02*
X75250D01*
Y46750D02*
Y59250D01*
X68750Y46750D02*
X75250D01*
X68750D02*
Y59250D01*
M02*
