G04*
G04 #@! TF.GenerationSoftware,Altium Limited,Altium Designer,26.3.0 (6)*
G04*
G04 Layer_Color=8388736*
%FSLAX44Y44*%
%MOMM*%
G71*
G04*
G04 #@! TF.SameCoordinates,C553D12A-F046-4733-A82E-BA61C6A6A17C*
G04*
G04*
G04 #@! TF.FilePolarity,Negative*
G04*
G01*
G75*
%ADD24R,0.7000X0.7000*%
%ADD25R,0.7000X0.7000*%
%ADD26P,0.8627X4X90.0*%
%ADD27R,0.6900X0.5500*%
%ADD28R,2.1000X1.3000*%
%ADD29R,0.5000X0.5000*%
%ADD30R,0.5000X0.5000*%
%ADD31R,1.6500X0.7000*%
%ADD32R,1.9000X0.9000*%
%ADD33C,1.3500*%
%ADD34O,3.3500X1.7250*%
G36*
X38703Y128269D02*
X38779Y128246D01*
X38814Y128228D01*
X38848Y128209D01*
X38909Y128159D01*
X41409Y125659D01*
X41459Y125598D01*
X41496Y125529D01*
X41519Y125453D01*
X41527Y125375D01*
Y124375D01*
X41519Y124297D01*
X41496Y124221D01*
X41459Y124152D01*
X41409Y124091D01*
X41348Y124041D01*
X41279Y124004D01*
X41203Y123981D01*
X41125Y123973D01*
X37625D01*
X37547Y123981D01*
X37471Y124004D01*
X37402Y124041D01*
X37341Y124091D01*
X37291Y124152D01*
X37254Y124221D01*
X37231Y124297D01*
X37223Y124375D01*
Y127875D01*
X37231Y127953D01*
X37254Y128029D01*
X37291Y128098D01*
X37341Y128159D01*
X37402Y128209D01*
X37471Y128246D01*
X37547Y128269D01*
X37625Y128277D01*
X38625D01*
X38703Y128269D01*
D02*
G37*
G36*
X41203Y135769D02*
X41279Y135746D01*
X41348Y135709D01*
X41409Y135659D01*
X41459Y135598D01*
X41496Y135529D01*
X41519Y135453D01*
X41527Y135375D01*
Y134375D01*
X41519Y134297D01*
X41496Y134221D01*
X41459Y134152D01*
X41409Y134091D01*
X38909Y131591D01*
X38848Y131541D01*
X38779Y131504D01*
X38703Y131481D01*
X38625Y131473D01*
X37625D01*
X37547Y131481D01*
X37471Y131504D01*
X37402Y131541D01*
X37341Y131591D01*
X37291Y131652D01*
X37254Y131721D01*
X37231Y131797D01*
X37223Y131875D01*
Y135375D01*
X37231Y135453D01*
X37254Y135529D01*
X37291Y135598D01*
X37341Y135659D01*
X37402Y135709D01*
X37471Y135746D01*
X37547Y135769D01*
X37625Y135777D01*
X41125D01*
X41203Y135769D01*
D02*
G37*
G36*
X48703Y128269D02*
X48779Y128246D01*
X48848Y128209D01*
X48909Y128159D01*
X48959Y128098D01*
X48996Y128029D01*
X49019Y127953D01*
X49027Y127875D01*
Y124375D01*
X49019Y124297D01*
X48996Y124221D01*
X48959Y124152D01*
X48909Y124091D01*
X48848Y124041D01*
X48779Y124004D01*
X48703Y123981D01*
X48625Y123973D01*
X45125D01*
X45047Y123981D01*
X44971Y124004D01*
X44902Y124041D01*
X44841Y124091D01*
X44791Y124152D01*
X44754Y124221D01*
X44731Y124297D01*
X44723Y124375D01*
Y125375D01*
X44731Y125453D01*
X44754Y125529D01*
X44791Y125598D01*
X44841Y125659D01*
X47341Y128159D01*
X47402Y128209D01*
X47436Y128228D01*
X47471Y128246D01*
X47547Y128269D01*
X47625Y128277D01*
X48625D01*
X48703Y128269D01*
D02*
G37*
G36*
Y135769D02*
X48779Y135746D01*
X48848Y135709D01*
X48909Y135659D01*
X48959Y135598D01*
X48996Y135529D01*
X49019Y135453D01*
X49027Y135375D01*
Y131875D01*
X49019Y131797D01*
X48996Y131721D01*
X48959Y131652D01*
X48909Y131591D01*
X48848Y131541D01*
X48779Y131504D01*
X48703Y131481D01*
X48625Y131473D01*
X47625D01*
X47547Y131481D01*
X47471Y131504D01*
X47402Y131541D01*
X47341Y131591D01*
X44841Y134091D01*
X44791Y134152D01*
X44772Y134186D01*
X44754Y134221D01*
X44731Y134297D01*
X44723Y134375D01*
X44723Y135375D01*
X44731Y135453D01*
X44754Y135529D01*
X44791Y135598D01*
X44841Y135659D01*
X44902Y135709D01*
X44971Y135746D01*
X45047Y135769D01*
X45125Y135777D01*
X48625D01*
X48703Y135769D01*
D02*
G37*
D24*
X11000Y135000D02*
D03*
X22000D02*
D03*
X16000Y31000D02*
D03*
X27000D02*
D03*
D25*
X40000D02*
D03*
Y20000D02*
D03*
D26*
X43125Y129875D02*
D03*
D27*
X56500Y124000D02*
D03*
X81500D02*
D03*
D28*
X83000Y38500D02*
D03*
Y83500D02*
D03*
Y108500D02*
D03*
Y63500D02*
D03*
D29*
X57000Y22000D02*
D03*
X51000D02*
D03*
X32000Y114000D02*
D03*
X26000D02*
D03*
X60779Y111779D02*
D03*
X54779D02*
D03*
X17000Y126000D02*
D03*
X11000D02*
D03*
X28000Y18000D02*
D03*
X22000D02*
D03*
X16000Y11000D02*
D03*
X22000D02*
D03*
X19000Y114000D02*
D03*
X13000D02*
D03*
X40000D02*
D03*
X46000D02*
D03*
X56000Y136000D02*
D03*
X62000D02*
D03*
X75000Y96000D02*
D03*
X81000D02*
D03*
X51000Y29000D02*
D03*
X57000D02*
D03*
D30*
X53000Y41000D02*
D03*
Y47000D02*
D03*
X61000Y41000D02*
D03*
Y47000D02*
D03*
D31*
X59000Y88000D02*
D03*
Y78000D02*
D03*
Y68000D02*
D03*
D32*
X20750Y101000D02*
D03*
Y55000D02*
D03*
D33*
X109000Y51000D02*
D03*
Y96000D02*
D03*
D34*
Y15000D02*
D03*
Y132000D02*
D03*
M02*
