G04*
G04 #@! TF.GenerationSoftware,Altium Limited,Altium Designer,26.3.0 (6)*
G04*
G04 Layer_Color=8421504*
%FSLAX44Y44*%
%MOMM*%
G71*
G04*
G04 #@! TF.SameCoordinates,92C58278-7CF8-41AA-B6FA-E9343EFDA047*
G04*
G04*
G04 #@! TF.FilePolarity,Positive*
G04*
G01*
G75*
%ADD15R,0.6000X0.6000*%
%ADD16R,0.6000X0.6000*%
%ADD17P,0.7495X4X90.0*%
%ADD18R,0.5900X0.4500*%
%ADD19R,2.0000X1.2000*%
%ADD20R,0.4000X0.4000*%
%ADD21R,0.4000X0.4000*%
%ADD22R,1.5500X0.6000*%
%ADD23R,1.8000X0.8000*%
G36*
X41125Y125375D02*
Y124375D01*
X37625D01*
Y127875D01*
X38625D01*
X41125Y125375D01*
D02*
G37*
G36*
Y134375D02*
X38625Y131875D01*
X37625D01*
Y135375D01*
X41125D01*
Y134375D01*
D02*
G37*
G36*
X48625Y124375D02*
X45125D01*
Y125375D01*
X47625Y127875D01*
X48625D01*
Y124375D01*
D02*
G37*
G36*
Y131875D02*
X47625D01*
X45125Y134375D01*
X45125Y135375D01*
X48625D01*
Y131875D01*
D02*
G37*
D15*
X11000Y135000D02*
D03*
X22000D02*
D03*
X16000Y31000D02*
D03*
X27000D02*
D03*
D16*
X40000D02*
D03*
Y20000D02*
D03*
D17*
X43125Y129875D02*
D03*
D18*
X56500Y124000D02*
D03*
X81500D02*
D03*
D19*
X83000Y38500D02*
D03*
Y83500D02*
D03*
Y108500D02*
D03*
Y63500D02*
D03*
D20*
X57000Y22000D02*
D03*
X51000D02*
D03*
X32000Y114000D02*
D03*
X26000D02*
D03*
X60779Y111779D02*
D03*
X54779D02*
D03*
X17000Y126000D02*
D03*
X11000D02*
D03*
X28000Y18000D02*
D03*
X22000D02*
D03*
X16000Y11000D02*
D03*
X22000D02*
D03*
X19000Y114000D02*
D03*
X13000D02*
D03*
X40000D02*
D03*
X46000D02*
D03*
X56000Y136000D02*
D03*
X62000D02*
D03*
X75000Y96000D02*
D03*
X81000D02*
D03*
X51000Y29000D02*
D03*
X57000D02*
D03*
D21*
X53000Y41000D02*
D03*
Y47000D02*
D03*
X61000Y41000D02*
D03*
Y47000D02*
D03*
D22*
X59000Y88000D02*
D03*
Y78000D02*
D03*
Y68000D02*
D03*
D23*
X20750Y101000D02*
D03*
Y55000D02*
D03*
M02*
