G04*
G04 #@! TF.GenerationSoftware,Altium Limited,Altium Designer,26.3.0 (6)*
G04*
G04 Layer_Physical_Order=1*
G04 Layer_Color=255*
%FSLAX44Y44*%
%MOMM*%
G71*
G04*
G04 #@! TF.SameCoordinates,92C58278-7CF8-41AA-B6FA-E9343EFDA047*
G04*
G04*
G04 #@! TF.FilePolarity,Positive*
G04*
G01*
G75*
%ADD15R,0.6000X0.6000*%
%ADD16R,0.6000X0.6000*%
%ADD17P,0.7495X4X90.0*%
%ADD18R,0.5900X0.4500*%
%ADD19R,2.0000X1.2000*%
%ADD20R,0.4000X0.4000*%
%ADD21R,0.4000X0.4000*%
%ADD22R,1.5500X0.6000*%
%ADD23R,1.8000X0.8000*%
%ADD35C,0.4000*%
%AMCUSTOMSHAPE36*
4,1,5,0.1750,-0.0750,-0.0750,0.1750,-0.1750,0.1750,-0.1750,-0.1750,0.1750,-0.1750,0.1750,-0.0750,0.0*%
%ADD36CUSTOMSHAPE36*%

%AMCUSTOMSHAPE37*
4,1,5,-0.1750,0.0750,0.0750,-0.1750,0.1750,-0.1750,0.1750,0.1750,-0.1750,0.1750,-0.1750,0.0750,0.0*%
%ADD37CUSTOMSHAPE37*%

%AMCUSTOMSHAPE38*
4,1,5,0.0750,0.1750,-0.1750,-0.0750,-0.1750,-0.1750,0.1750,-0.1750,0.1750,0.1750,0.0750,0.1750,0.0*%
%ADD38CUSTOMSHAPE38*%

%AMCUSTOMSHAPE39*
4,1,5,-0.0750,-0.1750,0.1750,0.0750,0.1750,0.1750,-0.1750,0.1750,-0.1750,-0.1750,-0.0750,-0.1750,0.0*%
%ADD39CUSTOMSHAPE39*%

%ADD40C,0.1520*%
%ADD41C,0.3000*%
%ADD42C,1.2500*%
%ADD43O,3.2500X1.6250*%
%ADD44C,0.3000*%
%ADD45C,0.8000*%
%ADD46C,0.5000*%
%ADD47C,0.4000*%
G36*
X58000Y132000D02*
X48000D01*
X45250Y135250D01*
X40750D01*
X38000Y132000D01*
X28000D01*
Y140750D01*
X58000D01*
Y132000D01*
D02*
G37*
G36*
X125750Y5250D02*
X5250D01*
Y140750D01*
X27038D01*
Y132000D01*
X27320Y131320D01*
X28000Y131038D01*
X37323D01*
X37625Y130913D01*
X38625D01*
X39305Y131195D01*
X41805Y133695D01*
X42051Y134288D01*
X44199D01*
X44279Y134093D01*
X44444Y133695D01*
X44444D01*
Y133695D01*
X46945Y131195D01*
X47625Y130913D01*
X48625D01*
X48927Y131038D01*
X53054D01*
Y127139D01*
X52661D01*
Y120861D01*
X60339D01*
Y127139D01*
X58946D01*
Y131960D01*
X58962Y132000D01*
Y140750D01*
X125750D01*
Y5250D01*
D02*
G37*
%LPC*%
G36*
X14889Y138889D02*
X7111D01*
Y131111D01*
X9319D01*
Y128889D01*
X8111D01*
Y123111D01*
X13889D01*
Y128889D01*
X12681D01*
Y131111D01*
X14889D01*
Y138889D01*
D02*
G37*
G36*
X85407Y132422D02*
X67907D01*
X67227Y132140D01*
X66945Y131460D01*
Y114960D01*
Y114266D01*
X66784Y114427D01*
X65575Y114928D01*
X64266D01*
X63640Y114668D01*
X57890D01*
Y108890D01*
X63015D01*
X63057Y108849D01*
X64266Y108348D01*
X65575D01*
X66784Y108849D01*
X66945Y109009D01*
Y102500D01*
X67110Y102101D01*
X66654Y102290D01*
X65346D01*
X64136Y101789D01*
X63211Y100864D01*
X62710Y99654D01*
Y98940D01*
X55570Y106080D01*
Y106304D01*
X55968Y106701D01*
X55968Y106701D01*
X56333Y107247D01*
X56354Y107354D01*
X56460Y107890D01*
X56460Y107891D01*
Y108890D01*
X57668D01*
Y114668D01*
X51890D01*
Y110290D01*
X51346D01*
X50136Y109789D01*
X49211Y108864D01*
X48710Y107654D01*
Y106346D01*
X49211Y105136D01*
X50136Y104211D01*
X51346Y103710D01*
X52654D01*
X53029Y103865D01*
X64679Y92215D01*
X64680Y92215D01*
X65168Y91889D01*
X50361D01*
Y89681D01*
X47587D01*
X47449Y89820D01*
Y107682D01*
X47553Y107838D01*
X47681Y108482D01*
X47681Y108482D01*
Y111111D01*
X48889D01*
Y116889D01*
X43111D01*
Y111111D01*
X44319D01*
Y109049D01*
X44214Y108892D01*
X44086Y108249D01*
X44086Y108249D01*
Y89123D01*
X44086Y89123D01*
X44214Y88480D01*
X44578Y87934D01*
X45701Y86811D01*
X45702Y86811D01*
X46247Y86447D01*
X46354Y86426D01*
X46890Y86319D01*
X46891Y86319D01*
X50361D01*
Y84241D01*
X49893Y84553D01*
X49250Y84681D01*
X49250Y84681D01*
X47696D01*
X42681Y89697D01*
Y108110D01*
X42681Y108110D01*
X42575Y108646D01*
X42553Y108753D01*
X42189Y109298D01*
X42189Y109298D01*
X41298Y110189D01*
X40753Y110553D01*
X40110Y110681D01*
X40109Y110681D01*
X15696D01*
X15267Y111111D01*
X15889D01*
Y116889D01*
X11935D01*
X12364Y117319D01*
X20727D01*
X20728Y117319D01*
X21371Y117447D01*
X21916Y117811D01*
X25424Y121319D01*
X33304D01*
X33840Y120782D01*
X32803D01*
X31594Y120282D01*
X30668Y119356D01*
X30168Y118147D01*
Y116889D01*
X29290D01*
Y117223D01*
X28789Y118433D01*
X27864Y119358D01*
X26655Y119859D01*
X25346D01*
X24136Y119358D01*
X23211Y118433D01*
X22710Y117223D01*
Y115915D01*
X22807Y115681D01*
X21889D01*
Y116889D01*
X16111D01*
Y111111D01*
X21889D01*
Y112319D01*
X23111D01*
Y111111D01*
X28889D01*
Y114946D01*
X29111Y115482D01*
Y111111D01*
X34889D01*
Y114524D01*
X35321Y114703D01*
X36247Y115629D01*
X36748Y116838D01*
Y117875D01*
X37733Y116889D01*
X37111D01*
Y111111D01*
X42889D01*
Y116889D01*
X41318D01*
Y117364D01*
X41318Y117364D01*
X41240Y117754D01*
X41346Y117710D01*
X42654D01*
X43864Y118211D01*
X44789Y119136D01*
X45290Y120346D01*
Y121654D01*
X44789Y122864D01*
X43864Y123789D01*
X42654Y124290D01*
X42052D01*
X42087Y124375D01*
Y125375D01*
X41805Y126055D01*
X40598Y127263D01*
X40564Y127314D01*
X40513Y127348D01*
X39305Y128555D01*
X38625Y128837D01*
X37625D01*
X36945Y128555D01*
X36663Y127875D01*
Y124375D01*
X36945Y123694D01*
X37625Y123413D01*
X37694D01*
Y122174D01*
X37694Y122174D01*
X37815Y121562D01*
X35189Y124189D01*
X34643Y124553D01*
X34000Y124681D01*
X34000Y124681D01*
X25015D01*
X25290Y125346D01*
Y126654D01*
X24789Y127864D01*
X23864Y128789D01*
X22654Y129290D01*
X21346D01*
X20136Y128789D01*
X19889Y128542D01*
Y128889D01*
X14111D01*
Y123111D01*
X19889D01*
Y123458D01*
X20136Y123211D01*
X21346Y122710D01*
X22060D01*
X20031Y120681D01*
X11668D01*
X11668Y120681D01*
X11025Y120553D01*
X10479Y120189D01*
X10479Y120189D01*
X8162Y117872D01*
X7798Y117326D01*
X7670Y116683D01*
X7670Y116683D01*
Y97067D01*
X7670Y97067D01*
X7798Y96424D01*
X8162Y95878D01*
X9987Y94054D01*
Y70639D01*
X9188Y69841D01*
X8687Y68632D01*
Y67323D01*
X9188Y66114D01*
X10114Y65188D01*
X11323Y64687D01*
X12632D01*
X13841Y65188D01*
X14766Y66114D01*
X15267Y67323D01*
Y68632D01*
X14766Y69841D01*
X13841Y70766D01*
X13349Y70970D01*
Y94750D01*
X13349Y94750D01*
X13221Y95393D01*
X12857Y95939D01*
X12857Y95939D01*
X11032Y97763D01*
Y111111D01*
X11319D01*
Y111000D01*
X11319Y111000D01*
X11447Y110357D01*
X11811Y109811D01*
X13811Y107811D01*
X13811Y107811D01*
X14357Y107447D01*
X15000Y107319D01*
X15000Y107319D01*
X39319D01*
Y89000D01*
X39319Y89000D01*
X39447Y88357D01*
X39811Y87811D01*
X45811Y81811D01*
X45811Y81811D01*
X46357Y81447D01*
X47000Y81319D01*
X47000Y81319D01*
X48554D01*
X50361Y79511D01*
Y74111D01*
X67639D01*
Y81889D01*
X52739D01*
X50517Y84111D01*
X67639D01*
Y90065D01*
X68915Y88789D01*
Y77572D01*
X68915Y77571D01*
X69043Y76928D01*
X69408Y76383D01*
X72079Y73712D01*
Y68740D01*
X72079Y68740D01*
X72111Y68578D01*
Y56611D01*
X93889D01*
Y70389D01*
X75441D01*
Y74408D01*
X75313Y75051D01*
X74949Y75597D01*
X74949Y75597D01*
X73935Y76611D01*
X93889D01*
Y81823D01*
X94791Y80921D01*
X96000Y80420D01*
X97309D01*
X98518Y80921D01*
X99444Y81846D01*
X99944Y83056D01*
Y84364D01*
X99444Y85574D01*
X98518Y86499D01*
X97309Y87000D01*
X96000D01*
X94791Y86499D01*
X93889Y85597D01*
Y90389D01*
X72111D01*
Y90187D01*
X71785Y90674D01*
X71785Y90674D01*
X67867Y94593D01*
X67322Y94957D01*
X66678Y95085D01*
X66678Y95085D01*
X66565D01*
X65940Y95710D01*
X66654D01*
X66837Y95786D01*
X67811Y94811D01*
X67811Y94811D01*
X68357Y94447D01*
X69000Y94319D01*
X69000Y94319D01*
X72111D01*
Y93111D01*
X77889D01*
Y98889D01*
X72111D01*
Y97681D01*
X69696D01*
X69215Y98163D01*
X69290Y98346D01*
Y99654D01*
X68789Y100864D01*
X68115Y101538D01*
X93447D01*
X93624Y101611D01*
X93889D01*
Y101721D01*
X94128Y101820D01*
X96346Y104038D01*
X105342D01*
X103603Y103034D01*
X101966Y101397D01*
X100809Y99393D01*
X100210Y97157D01*
Y94843D01*
X100809Y92607D01*
X101966Y90603D01*
X103603Y88966D01*
X105607Y87809D01*
X107843Y87210D01*
X110157D01*
X112393Y87809D01*
X114397Y88966D01*
X116034Y90603D01*
X117191Y92607D01*
X117790Y94843D01*
Y97157D01*
X117191Y99393D01*
X116034Y101397D01*
X114397Y103034D01*
X112393Y104191D01*
X110720Y104639D01*
X110870Y105000D01*
Y120710D01*
X110588Y121390D01*
X109907Y121672D01*
X97493D01*
X94948Y124218D01*
X93993Y124856D01*
X92865Y125080D01*
X91384D01*
X90382Y126083D01*
X89426Y126721D01*
X88299Y126946D01*
X86456D01*
X86416Y126962D01*
X86369D01*
Y131460D01*
X86088Y132140D01*
X85407Y132422D01*
D02*
G37*
G36*
X47654Y81290D02*
X46346D01*
X45136Y80789D01*
X44211Y79864D01*
X44135Y79681D01*
X40000D01*
X40000Y79681D01*
X39463Y79574D01*
X39357Y79553D01*
X38811Y79189D01*
X38811Y79189D01*
X37811Y78189D01*
X37447Y77643D01*
X37319Y77000D01*
X37319Y77000D01*
Y45000D01*
X37319Y45000D01*
X37447Y44357D01*
X37811Y43811D01*
X44319Y37304D01*
Y29890D01*
X44319Y29890D01*
X44447Y29247D01*
X44811Y28702D01*
X45701Y27811D01*
X45702Y27811D01*
X46247Y27447D01*
X46354Y27425D01*
X46891Y27319D01*
X46891Y27319D01*
X48111D01*
Y26111D01*
X49319D01*
Y24889D01*
X48111D01*
Y19111D01*
X53889D01*
Y24889D01*
X52681D01*
Y26111D01*
X53889D01*
Y31889D01*
X48111D01*
Y30681D01*
X47681D01*
Y38000D01*
X47681Y38000D01*
X47553Y38643D01*
X47189Y39189D01*
X47189Y39189D01*
X40681Y45697D01*
Y76304D01*
X40696Y76319D01*
X44135D01*
X44211Y76136D01*
X45136Y75211D01*
X46346Y74710D01*
X47654D01*
X48864Y75211D01*
X49789Y76136D01*
X50290Y77346D01*
Y78654D01*
X49789Y79864D01*
X48864Y80789D01*
X47654Y81290D01*
D02*
G37*
G36*
Y71290D02*
X46346D01*
X45136Y70789D01*
X44211Y69864D01*
X43710Y68654D01*
Y67346D01*
X44211Y66136D01*
X45136Y65211D01*
X45319Y65135D01*
Y47891D01*
X45319Y47890D01*
X45447Y47247D01*
X45811Y46702D01*
X46701Y45811D01*
X46702Y45811D01*
X47247Y45447D01*
X47354Y45426D01*
X47890Y45319D01*
X47891Y45319D01*
X50111D01*
Y44111D01*
X55889D01*
Y49889D01*
X50111D01*
Y48681D01*
X48681D01*
Y65135D01*
X48864Y65211D01*
X49789Y66136D01*
X50290Y67346D01*
Y68654D01*
X49789Y69864D01*
X48864Y70789D01*
X47654Y71290D01*
D02*
G37*
G36*
X63889Y43889D02*
X58111D01*
Y42681D01*
X55889D01*
Y43889D01*
X50111D01*
Y38111D01*
X55889D01*
Y39319D01*
X58111D01*
Y38111D01*
X58458D01*
X58211Y37864D01*
X57710Y36654D01*
Y35346D01*
X58211Y34136D01*
X59136Y33211D01*
X60346Y32710D01*
X61654D01*
X62864Y33211D01*
X63789Y34136D01*
X64290Y35346D01*
Y36654D01*
X63789Y37864D01*
X63542Y38111D01*
X63889D01*
Y43889D01*
D02*
G37*
G36*
X110157Y59790D02*
X107843D01*
X105607Y59191D01*
X103603Y58034D01*
X101966Y56397D01*
X100809Y54393D01*
X100210Y52157D01*
Y49843D01*
X100809Y47607D01*
X101966Y45603D01*
X103603Y43966D01*
X105607Y42809D01*
X107843Y42210D01*
X110157D01*
X112393Y42809D01*
X114397Y43966D01*
X116034Y45603D01*
X117191Y47607D01*
X117790Y49843D01*
Y52157D01*
X117191Y54393D01*
X116034Y56397D01*
X114397Y58034D01*
X112393Y59191D01*
X110157Y59790D01*
D02*
G37*
G36*
X32944Y42290D02*
X31635D01*
X30426Y41789D01*
X29501Y40864D01*
X29000Y39654D01*
Y38345D01*
X29501Y37136D01*
X30426Y36211D01*
X31635Y35710D01*
X32944D01*
X34154Y36211D01*
X35079Y37136D01*
X35155Y37319D01*
X37413D01*
X38319Y36413D01*
Y34889D01*
X36111D01*
Y27111D01*
X43889D01*
Y34889D01*
X41681D01*
Y37109D01*
X41681Y37110D01*
X41553Y37753D01*
X41189Y38298D01*
X41189Y38298D01*
X39299Y40189D01*
X38753Y40553D01*
X38110Y40681D01*
X38110Y40681D01*
X35155D01*
X35079Y40864D01*
X34154Y41789D01*
X32944Y42290D01*
D02*
G37*
G36*
X63654Y25290D02*
X62346D01*
X61136Y24789D01*
X60211Y23864D01*
X60135Y23681D01*
X59889D01*
Y24889D01*
X54111D01*
Y19111D01*
X59889D01*
Y20319D01*
X60135D01*
X60211Y20136D01*
X61136Y19211D01*
X62346Y18710D01*
X63654D01*
X64864Y19211D01*
X65789Y20136D01*
X66290Y21346D01*
Y22654D01*
X65789Y23864D01*
X64864Y24789D01*
X63654Y25290D01*
D02*
G37*
G36*
X43889Y23889D02*
X36111D01*
Y21681D01*
X34000D01*
X34000Y21681D01*
X33463Y21575D01*
X33357Y21553D01*
X32811Y21189D01*
X32811Y21189D01*
X31304Y19681D01*
X30889D01*
Y20889D01*
X25111D01*
Y15111D01*
X30889D01*
Y16319D01*
X32000D01*
X32000Y16319D01*
X32643Y16447D01*
X33189Y16811D01*
X34696Y18319D01*
X36111D01*
Y16111D01*
X43889D01*
Y23889D01*
D02*
G37*
G36*
X22654Y27290D02*
X21346D01*
X20136Y26789D01*
X19211Y25864D01*
X18710Y24654D01*
Y23346D01*
X19211Y22136D01*
X20136Y21211D01*
X20319Y21135D01*
Y20889D01*
X19111D01*
Y15111D01*
X20319D01*
Y13889D01*
X19111D01*
Y8111D01*
X24889D01*
Y13889D01*
X23681D01*
Y15111D01*
X24889D01*
Y20889D01*
X23681D01*
Y21135D01*
X23864Y21211D01*
X24789Y22136D01*
X25290Y23346D01*
Y24654D01*
X24789Y25864D01*
X23864Y26789D01*
X22654Y27290D01*
D02*
G37*
G36*
X19889Y34889D02*
X12111D01*
Y27111D01*
X14319D01*
Y13889D01*
X13111D01*
Y8111D01*
X18889D01*
Y13889D01*
X17681D01*
Y27111D01*
X19889D01*
Y34889D01*
D02*
G37*
%LPD*%
G36*
X85407Y126000D02*
X86416D01*
X91706Y120710D01*
X109907D01*
Y105000D01*
X95947D01*
X93447Y102500D01*
X67907D01*
Y110250D01*
X68211Y110983D01*
Y112292D01*
X67907Y113025D01*
Y114960D01*
Y131460D01*
X85407D01*
Y126000D01*
D02*
G37*
D15*
X11000Y135000D02*
D03*
X22000D02*
D03*
X16000Y31000D02*
D03*
X27000D02*
D03*
D16*
X40000D02*
D03*
Y20000D02*
D03*
D17*
X43125Y129875D02*
D03*
D18*
X56500Y124000D02*
D03*
X81500D02*
D03*
D19*
X83000Y38500D02*
D03*
Y83500D02*
D03*
Y108500D02*
D03*
Y63500D02*
D03*
D20*
X57000Y22000D02*
D03*
X51000D02*
D03*
X32000Y114000D02*
D03*
X26000D02*
D03*
X60779Y111779D02*
D03*
X54779D02*
D03*
X17000Y126000D02*
D03*
X11000D02*
D03*
X28000Y18000D02*
D03*
X22000D02*
D03*
X16000Y11000D02*
D03*
X22000D02*
D03*
X19000Y114000D02*
D03*
X13000D02*
D03*
X40000D02*
D03*
X46000D02*
D03*
X56000Y136000D02*
D03*
X62000D02*
D03*
X75000Y96000D02*
D03*
X81000D02*
D03*
X51000Y29000D02*
D03*
X57000D02*
D03*
D21*
X53000Y41000D02*
D03*
Y47000D02*
D03*
X61000Y41000D02*
D03*
Y47000D02*
D03*
D22*
X59000Y88000D02*
D03*
Y78000D02*
D03*
Y68000D02*
D03*
D23*
X20750Y101000D02*
D03*
Y55000D02*
D03*
D35*
X56000Y125922D02*
G03*
X56071Y125185I4000J14D01*
G01*
X90164Y122135D02*
X92865D01*
X100000Y115000D01*
X88299Y124000D02*
X90164Y122135D01*
X56000Y125922D02*
Y136000D01*
Y125922D02*
Y125922D01*
X56071Y125185D02*
X56250Y124250D01*
X56500Y124000D01*
X81500D02*
X88299D01*
D36*
X39375Y126125D02*
D03*
D37*
X46875Y133625D02*
D03*
D38*
Y126125D02*
D03*
D39*
X39375Y133625D02*
D03*
D40*
X11668Y69333D02*
Y94750D01*
Y69333D02*
X11694Y69307D01*
Y68260D02*
Y69307D01*
X11668Y119000D02*
X20728D01*
X9351Y97067D02*
Y116683D01*
Y97067D02*
X11668Y94750D01*
X9351Y116683D02*
X11668Y119000D01*
X11694Y68260D02*
X11977Y67977D01*
X53889Y105384D02*
Y107000D01*
X79000Y63500D02*
X83000D01*
X73760Y68740D02*
X79000Y63500D01*
X73760Y68740D02*
Y74408D01*
X70596Y77571D02*
X73760Y74408D01*
X70596Y77571D02*
Y89486D01*
X66678Y93404D02*
X70596Y89486D01*
X65868Y93404D02*
X66678D01*
X53889Y105384D02*
X65868Y93404D01*
X54779Y107890D02*
Y111779D01*
X53889Y107000D02*
X54779Y107890D01*
X52000Y107000D02*
X53889D01*
X45767Y108249D02*
X46000Y108482D01*
Y114000D01*
X45767Y89123D02*
X46890Y88000D01*
X45767Y89123D02*
Y108249D01*
X20728Y119000D02*
X24728Y123000D01*
X24240Y129720D02*
X26050Y127910D01*
Y127050D02*
Y127910D01*
X24728Y123000D02*
X34000D01*
X24240Y129720D02*
Y132760D01*
X22000Y135000D02*
X24240Y132760D01*
X17000Y126000D02*
X22000D01*
X13000Y111000D02*
X15000Y109000D01*
X40110D02*
X41000Y108110D01*
X15000Y109000D02*
X40110D01*
X13000Y114000D02*
Y115000D01*
Y111000D02*
Y114000D01*
X49250Y83000D02*
X54250Y78000D01*
X59000D01*
X41000Y89000D02*
Y108110D01*
X47000Y83000D02*
X49250D01*
X41000Y89000D02*
X47000Y83000D01*
X46890Y88000D02*
X59000D01*
X69000Y96000D02*
X75000D01*
X66000Y99000D02*
X69000Y96000D01*
X60779Y111779D02*
X64779D01*
X33174Y117209D02*
X33458Y117493D01*
X32000Y114000D02*
X33174Y115174D01*
Y117209D01*
X26000Y114000D02*
Y116569D01*
X81210Y83710D02*
X96654D01*
X81000Y83500D02*
X81210Y83710D01*
X38110Y39000D02*
X40000Y37110D01*
X32290Y39000D02*
X38110D01*
X40000Y31000D02*
Y37110D01*
X11000Y126000D02*
Y135000D01*
X62000Y136000D02*
X67000D01*
X61000Y47000D02*
X64110D01*
X65000Y46110D01*
X65890Y38500D02*
X78000D01*
X65000Y39390D02*
X65890Y38500D01*
X65000Y39390D02*
Y46110D01*
X63000Y29000D02*
X63000Y29000D01*
X57000Y29000D02*
X63000D01*
X19000Y114000D02*
X26000D01*
X40000Y78000D02*
X47000D01*
X34000Y123000D02*
X39636Y117364D01*
Y114364D02*
Y117364D01*
Y114364D02*
X40000Y114000D01*
X47000Y47890D02*
Y68000D01*
Y47890D02*
X47890Y47000D01*
X53000D01*
X46000Y29890D02*
Y38000D01*
Y29890D02*
X46891Y29000D01*
X51000D01*
X39000Y45000D02*
X46000Y38000D01*
X39000Y45000D02*
Y77000D01*
X51000Y29000D02*
X51000Y29000D01*
X39000Y77000D02*
X40000Y78000D01*
X51000Y22000D02*
Y29000D01*
Y22000D02*
X51000Y22000D01*
X22000Y18000D02*
Y24000D01*
Y11000D02*
Y18000D01*
X40000Y20000D02*
X40000Y20000D01*
X34000Y20000D02*
X40000D01*
X32000Y18000D02*
X34000Y20000D01*
X28000Y18000D02*
X32000D01*
X16000Y31000D02*
X16000Y31000D01*
Y11000D02*
Y31000D01*
X63000Y22000D02*
X63000Y22000D01*
X57000Y22000D02*
X63000D01*
X61000Y36000D02*
Y41000D01*
X41717Y121283D02*
X42000Y121000D01*
X40265Y121283D02*
X41717D01*
X39375Y122174D02*
Y126125D01*
Y122174D02*
X40265Y121283D01*
X53000Y41000D02*
X61000D01*
D41*
X43000Y130000D02*
X43813Y129187D01*
X46750Y126250D01*
D42*
X109000Y51000D02*
D03*
Y96000D02*
D03*
D43*
Y15000D02*
D03*
Y132000D02*
D03*
D44*
X52000Y107000D02*
D03*
X22000Y126000D02*
D03*
X66000Y99000D02*
D03*
X64921Y111638D02*
D03*
X11977Y67977D02*
D03*
X33458Y117493D02*
D03*
X26000Y116569D02*
D03*
X96654Y83710D02*
D03*
X32290Y39000D02*
D03*
X67000Y136000D02*
D03*
X63000Y29000D02*
D03*
X47000Y78000D02*
D03*
Y68000D02*
D03*
X22000Y24000D02*
D03*
X63000Y22000D02*
D03*
X61000Y36000D02*
D03*
X42000Y121000D02*
D03*
D45*
X100000Y115000D02*
D03*
D46*
X43000Y130000D02*
D03*
D47*
X36250Y138000D02*
D03*
M02*
