G04*
G04 #@! TF.GenerationSoftware,Altium Limited,Altium Designer,26.3.0 (6)*
G04*
G04 Layer_Physical_Order=2*
G04 Layer_Color=32768*
%FSLAX44Y44*%
%MOMM*%
G71*
G04*
G04 #@! TF.SameCoordinates,D32A9F9A-12CA-4EA5-8080-0E3576E01956*
G04*
G04*
G04 #@! TF.FilePolarity,Negative*
G04*
G01*
G75*
%ADD44C,1.0160*%
%AMTHOVALD45*
21,1,1.8500,1.5278,0,0,180.0*
1,1,1.5278,0.9250,0.0000*
1,1,1.5278,-0.9250,0.0000*
21,0,1.8500,1.3500,0,0,180.0*
1,0,1.3500,0.9250,0.0000*
1,0,1.3500,-0.9250,0.0000*
4,0,4,0.8936,0.0314,1.4337,0.5716,1.4966,0.5087,0.9564,-0.0314,0.8936,0.0314,0.0*
4,0,4,-0.9564,0.0314,-1.4966,-0.5087,-1.4337,-0.5716,-0.8936,-0.0314,-0.9564,0.0314,0.0*
4,0,4,0.9564,0.0314,1.4966,-0.5087,1.4337,-0.5716,0.8936,-0.0314,0.9564,0.0314,0.0*
4,0,4,-0.8936,0.0314,-1.4337,0.5716,-1.4966,0.5087,-0.9564,-0.0314,-0.8936,0.0314,0.0*
%
%ADD45THOVALD45*%

%ADD46C,1.4278*%
%ADD47C,0.3278*%
%ADD48C,0.4778*%
%ADD49C,0.3778*%
D44*
X0Y0D02*
Y146000D01*
X131000D01*
Y0D02*
Y146000D01*
X0Y0D02*
X131000D01*
D45*
X104000Y132000D02*
D03*
Y15000D02*
D03*
D46*
Y96000D02*
D03*
Y51000D02*
D03*
D47*
X20977Y71008D02*
D03*
X42000Y121000D02*
D03*
X64000Y54710D02*
D03*
X21000Y96000D02*
D03*
X30985Y66004D02*
D03*
X20977D02*
D03*
X35989Y76011D02*
D03*
Y81015D02*
D03*
Y86019D02*
D03*
X61000Y36000D02*
D03*
X63000Y22000D02*
D03*
X59866Y52290D02*
D03*
X71040Y98879D02*
D03*
X21931Y108000D02*
D03*
X30985Y91023D02*
D03*
X20977Y76011D02*
D03*
X60934Y91980D02*
D03*
X25981Y91023D02*
D03*
X82000Y74000D02*
D03*
X51000Y96027D02*
D03*
X15973Y71008D02*
D03*
X25981D02*
D03*
X51000Y91023D02*
D03*
X45996D02*
D03*
Y66004D02*
D03*
X40992Y76011D02*
D03*
X45996Y96027D02*
D03*
D48*
X96250Y116000D02*
D03*
D49*
X36250Y138000D02*
D03*
M02*
