G04*
G04 #@! TF.GenerationSoftware,Altium Limited,Altium Designer,26.3.0 (6)*
G04*
G04 Layer_Color=16711935*
%FSLAX44Y44*%
%MOMM*%
G71*
G04*
G04 #@! TF.SameCoordinates,D32A9F9A-12CA-4EA5-8080-0E3576E01956*
G04*
G04*
G04 #@! TF.FilePolarity,Negative*
G04*
G01*
G75*
%ADD26R,0.5000X0.5000*%
%ADD27R,0.5000X0.5000*%
%ADD29O,3.3500X1.7250*%
%ADD30C,1.3500*%
%ADD55R,0.7000X0.7000*%
%ADD56R,1.9000X0.9000*%
%ADD57R,1.6500X0.7000*%
D26*
X64000Y120000D02*
D03*
X58000D02*
D03*
X18000Y118000D02*
D03*
X12000D02*
D03*
X18000Y112000D02*
D03*
X12000D02*
D03*
X48000Y120000D02*
D03*
X42000D02*
D03*
X82000Y103000D02*
D03*
X88000D02*
D03*
X75000Y71000D02*
D03*
X69000D02*
D03*
X75000Y61000D02*
D03*
X69000D02*
D03*
D27*
X94000Y82000D02*
D03*
Y88000D02*
D03*
X44000Y104000D02*
D03*
Y110000D02*
D03*
X36000Y110000D02*
D03*
Y104000D02*
D03*
X28000D02*
D03*
Y110000D02*
D03*
X68000D02*
D03*
Y104000D02*
D03*
X52000Y110000D02*
D03*
Y104000D02*
D03*
X60000Y104000D02*
D03*
Y110000D02*
D03*
D29*
X104000Y132000D02*
D03*
Y15000D02*
D03*
D30*
Y96000D02*
D03*
Y51000D02*
D03*
D55*
X12000Y131000D02*
D03*
X23000D02*
D03*
X71500Y93000D02*
D03*
X82500D02*
D03*
X85500Y82000D02*
D03*
X74500D02*
D03*
D56*
X18000Y94000D02*
D03*
Y48000D02*
D03*
D57*
X56250Y81000D02*
D03*
Y71000D02*
D03*
Y61000D02*
D03*
M02*
