G04*
G04 #@! TF.GenerationSoftware,Altium Limited,Altium Designer,26.3.0 (6)*
G04*
G04 Layer_Color=32896*
%FSLAX44Y44*%
%MOMM*%
G71*
G04*
G04 #@! TF.SameCoordinates,D32A9F9A-12CA-4EA5-8080-0E3576E01956*
G04*
G04*
G04 #@! TF.FilePolarity,Positive*
G04*
G01*
G75*
%ADD10C,0.0500*%
%ADD11C,0.2000*%
%ADD58R,0.3000X1.0000*%
D10*
X7500Y126000D02*
X30000D01*
Y136000D01*
X7500Y126000D02*
Y136000D01*
X30000D01*
X67000Y88000D02*
X89500D01*
Y98000D01*
X67000Y88000D02*
Y98000D01*
X89500D01*
X67500Y87000D02*
X90000D01*
X67500Y77000D02*
Y87000D01*
X90000Y77000D02*
Y87000D01*
X67500Y77000D02*
X90000D01*
X54750Y116750D02*
X67250D01*
Y123250D01*
X54750D02*
X67250D01*
X54750Y116750D02*
Y123250D01*
X8750Y114750D02*
X21250D01*
Y121250D01*
X8750D02*
X21250D01*
X8750Y114750D02*
Y121250D01*
X8750Y108750D02*
X21250D01*
Y115250D01*
X8750D02*
X21250D01*
X8750Y108750D02*
Y115250D01*
X38750Y116750D02*
X51250D01*
Y123250D01*
X38750D02*
X51250D01*
X38750Y116750D02*
Y123250D01*
X78750Y106250D02*
X91250D01*
X78750Y99750D02*
Y106250D01*
Y99750D02*
X91250D01*
Y106250D01*
X90750Y78750D02*
Y91250D01*
Y78750D02*
X97250D01*
Y91250D01*
X90750D02*
X97250D01*
X65750Y67750D02*
X78250D01*
Y74250D01*
X65750D02*
X78250D01*
X65750Y67750D02*
Y74250D01*
Y57750D02*
X78250D01*
Y64250D01*
X65750D02*
X78250D01*
X65750Y57750D02*
Y64250D01*
X40750Y100750D02*
X47250D01*
X40750D02*
Y113250D01*
X47250D01*
Y100750D02*
Y113250D01*
X32750Y113250D02*
X39250D01*
Y100750D02*
Y113250D01*
X32750Y100750D02*
X39250D01*
X32750D02*
Y113250D01*
X24750Y100750D02*
X31250D01*
X24750D02*
Y113250D01*
X31250D01*
Y100750D02*
Y113250D01*
X64750D02*
X71250D01*
Y100750D02*
Y113250D01*
X64750Y100750D02*
X71250D01*
X64750D02*
Y113250D01*
X48750D02*
X55250D01*
Y100750D02*
Y113250D01*
X48750Y100750D02*
X55250D01*
X48750D02*
Y113250D01*
X56750Y100750D02*
X63250D01*
X56750D02*
Y113250D01*
X63250D01*
Y100750D02*
Y113250D01*
D11*
X67750Y47500D02*
G03*
X67750Y47500I-1000J0D01*
G01*
X54500Y87500D02*
Y98000D01*
Y44000D02*
Y54500D01*
X2500Y83500D02*
X12000D01*
X2500Y58500D02*
X12000D01*
X2500D02*
Y83500D01*
X12000D02*
Y86500D01*
Y55500D02*
Y58500D01*
X30500Y98000D02*
X54500D01*
X30500Y44000D02*
X54500D01*
D58*
X28500Y131000D02*
D03*
X88000Y93000D02*
D03*
X69000Y82000D02*
D03*
M02*
