G04*
G04 #@! TF.GenerationSoftware,Altium Limited,Altium Designer,26.3.0 (6)*
G04*
G04 Layer_Color=8421504*
%FSLAX44Y44*%
%MOMM*%
G71*
G04*
G04 #@! TF.SameCoordinates,D32A9F9A-12CA-4EA5-8080-0E3576E01956*
G04*
G04*
G04 #@! TF.FilePolarity,Positive*
G04*
G01*
G75*
%ADD14R,1.4000X1.2000*%
%ADD15C,0.2794*%
%ADD16P,0.7495X4X90.0*%
%ADD17R,0.5900X0.4500*%
%ADD18R,2.0000X1.2000*%
%ADD19R,0.4000X0.4000*%
%ADD20R,0.4000X0.4000*%
%ADD21R,1.0000X1.0000*%
G36*
X41125Y125375D02*
Y124375D01*
X37625D01*
Y127875D01*
X38625D01*
X41125Y125375D01*
D02*
G37*
G36*
Y134375D02*
X38625Y131875D01*
X37625D01*
Y135375D01*
X41125D01*
Y134375D01*
D02*
G37*
G36*
X48625Y124375D02*
X45125D01*
Y125375D01*
X47625Y127875D01*
X48625D01*
Y124375D01*
D02*
G37*
G36*
Y131875D02*
X47625D01*
X45125Y134375D01*
X45125Y135375D01*
X48625D01*
Y131875D01*
D02*
G37*
D14*
X38000Y13000D02*
D03*
X16000D02*
D03*
Y30000D02*
D03*
X38000D02*
D03*
D15*
X51000Y96027D02*
D03*
Y91023D02*
D03*
Y86019D02*
D03*
Y81015D02*
D03*
Y76011D02*
D03*
Y71008D02*
D03*
Y66004D02*
D03*
Y61000D02*
D03*
X45996Y96027D02*
D03*
Y91023D02*
D03*
Y86019D02*
D03*
Y81015D02*
D03*
Y76011D02*
D03*
Y71008D02*
D03*
Y66004D02*
D03*
Y61000D02*
D03*
X40992Y96027D02*
D03*
Y91023D02*
D03*
Y86019D02*
D03*
Y81015D02*
D03*
Y76011D02*
D03*
Y71008D02*
D03*
Y66004D02*
D03*
Y61000D02*
D03*
X35989Y96027D02*
D03*
Y91023D02*
D03*
Y86019D02*
D03*
Y81015D02*
D03*
Y76011D02*
D03*
Y71008D02*
D03*
Y66004D02*
D03*
Y61000D02*
D03*
X30985Y96027D02*
D03*
Y91023D02*
D03*
Y86019D02*
D03*
Y81015D02*
D03*
Y76011D02*
D03*
Y71008D02*
D03*
Y66004D02*
D03*
Y61000D02*
D03*
X25981Y96027D02*
D03*
Y91023D02*
D03*
Y86019D02*
D03*
Y81015D02*
D03*
Y76011D02*
D03*
Y71008D02*
D03*
Y66004D02*
D03*
Y61000D02*
D03*
X20977Y96027D02*
D03*
Y91023D02*
D03*
Y86019D02*
D03*
Y81015D02*
D03*
Y76011D02*
D03*
Y71008D02*
D03*
Y66004D02*
D03*
Y61000D02*
D03*
X15973Y96027D02*
D03*
Y91023D02*
D03*
Y86019D02*
D03*
Y81015D02*
D03*
Y76011D02*
D03*
Y71008D02*
D03*
Y66004D02*
D03*
Y61000D02*
D03*
D16*
X43125Y129875D02*
D03*
D17*
X56500Y124000D02*
D03*
X81500D02*
D03*
D18*
X78000Y63500D02*
D03*
Y108500D02*
D03*
Y83500D02*
D03*
Y38500D02*
D03*
D19*
X57000Y22000D02*
D03*
X51000D02*
D03*
X16000Y48000D02*
D03*
X22000D02*
D03*
X56000Y136000D02*
D03*
X62000D02*
D03*
X75000Y95000D02*
D03*
X81000D02*
D03*
X51000Y30000D02*
D03*
X57000D02*
D03*
X16000Y40000D02*
D03*
X22000D02*
D03*
X37000D02*
D03*
X31000D02*
D03*
D20*
X64000Y85000D02*
D03*
Y79000D02*
D03*
X53000Y41000D02*
D03*
Y47000D02*
D03*
X64000Y69000D02*
D03*
Y63000D02*
D03*
X61000Y41000D02*
D03*
Y47000D02*
D03*
D21*
X13000Y134000D02*
D03*
Y118000D02*
D03*
X29000D02*
D03*
X28000Y134000D02*
D03*
M02*
