G04*
G04 #@! TF.GenerationSoftware,Altium Limited,Altium Designer,26.3.0 (6)*
G04*
G04 Layer_Physical_Order=4*
G04 Layer_Color=16440176*
%FSLAX44Y44*%
%MOMM*%
G71*
G04*
G04 #@! TF.SameCoordinates,D32A9F9A-12CA-4EA5-8080-0E3576E01956*
G04*
G04*
G04 #@! TF.FilePolarity,Positive*
G04*
G01*
G75*
%ADD31C,0.1520*%
%ADD38O,3.2500X1.6250*%
%ADD39C,1.2500*%
%ADD40C,0.3000*%
%ADD41C,0.8000*%
%ADD42C,0.5000*%
%ADD43C,0.4000*%
D31*
X74999Y101426D02*
G03*
X74555Y102445I-1519J-56D01*
G01*
X75051Y97340D02*
G03*
X75050Y97299I1520J-41D01*
G01*
X75089Y98770D02*
G03*
X75088Y99029I-4049J109D01*
G01*
X60116Y94915D02*
G03*
X58652Y96027I-1464J-408D01*
G01*
X64605Y76495D02*
G03*
X65049Y77576I-1076J1074D01*
G01*
X37728Y113000D02*
X39728Y115000D01*
X48000D01*
X16050Y112110D02*
X16940Y113000D01*
X37728D01*
X64000Y54710D02*
Y63000D01*
X75050Y74050D01*
Y97299D01*
X75051Y97340D02*
X75089Y98770D01*
X74999Y101426D02*
X75088Y99029D01*
X73000Y104000D02*
X74555Y102445D01*
X21000Y102000D02*
X23000Y104000D01*
X21000Y96000D02*
Y102000D01*
X23000Y104000D02*
X73000D01*
X16050Y92815D02*
Y112110D01*
X16000Y92765D02*
X16050Y92815D01*
X16000Y76902D02*
Y92765D01*
Y76902D02*
X16890Y76011D01*
X20977D01*
X41946Y99056D02*
X43890Y101000D01*
X41946Y91913D02*
Y99056D01*
X62000Y101000D02*
X64480Y98520D01*
X64984Y91999D02*
X65049Y77576D01*
X64984Y91999D02*
Y98016D01*
X64480Y98520D02*
X64984Y98016D01*
X64110Y76000D02*
X64605Y76495D01*
X60116Y94915D02*
X60934Y91980D01*
X51000Y96027D02*
X58652D01*
X43890Y101000D02*
X62000D01*
X45713Y91306D02*
X45996Y91023D01*
X42554Y91306D02*
X45713D01*
X41946Y91913D02*
X42554Y91306D01*
X50115Y76000D02*
X64110D01*
X37115Y63000D02*
X50115Y76000D01*
X16890Y63000D02*
X37115D01*
X16000Y63890D02*
X16890Y63000D01*
X16000Y63890D02*
Y70981D01*
X15973Y71008D02*
X16000Y70981D01*
X27000Y57000D02*
X45110D01*
X21785Y66106D02*
X36814D01*
X21000Y66890D02*
X21785Y66106D01*
X20977Y71008D02*
X21000Y70985D01*
Y66890D02*
Y70985D01*
X51000Y80292D02*
Y91023D01*
X36814Y66106D02*
X51000Y80292D01*
X13000Y60000D02*
X24000D01*
X27000Y57000D01*
X45110D02*
X46000Y57890D01*
X12000Y87861D02*
Y107000D01*
X11923Y87785D02*
X12000Y87861D01*
X11923Y61077D02*
Y87785D01*
Y61077D02*
X13000Y60000D01*
X46000Y57890D02*
Y66004D01*
X45996D02*
X46000D01*
D38*
X104000Y132000D02*
D03*
Y15000D02*
D03*
D39*
Y96000D02*
D03*
Y51000D02*
D03*
D40*
X20977Y71008D02*
D03*
X37000Y118000D02*
D03*
X67000Y136000D02*
D03*
X22000Y55290D02*
D03*
X43000Y40000D02*
D03*
X30985Y76011D02*
D03*
Y81015D02*
D03*
X40992Y61050D02*
D03*
X30985Y86019D02*
D03*
X52000Y13000D02*
D03*
X63000Y30000D02*
D03*
X45996Y86019D02*
D03*
X65000Y46110D02*
D03*
X58000Y115014D02*
D03*
X89000Y94000D02*
D03*
X58000Y13000D02*
D03*
X63000D02*
D03*
X68250D02*
D03*
X64000Y54710D02*
D03*
X21000Y96000D02*
D03*
X35989Y76011D02*
D03*
Y81015D02*
D03*
Y86019D02*
D03*
X59866Y52290D02*
D03*
X71040Y98879D02*
D03*
X21931Y108000D02*
D03*
X48000Y115000D02*
D03*
X30985Y91023D02*
D03*
X20977Y76011D02*
D03*
X60934Y91980D02*
D03*
X25981Y91023D02*
D03*
X82000Y74000D02*
D03*
X51000Y96027D02*
D03*
X15973Y71008D02*
D03*
X25981D02*
D03*
X51000Y91023D02*
D03*
X45996D02*
D03*
Y66004D02*
D03*
X12000Y107000D02*
D03*
X40992Y76011D02*
D03*
X45996Y96027D02*
D03*
D41*
X96250Y116000D02*
D03*
D42*
X43000Y130000D02*
D03*
D43*
X36250Y138000D02*
D03*
M02*
